%TF.GenerationSoftware,KiCad,Pcbnew,8.0.6*%
%TF.CreationDate,2024-12-09T16:08:49+11:00*%
%TF.ProjectId,PropellerLampMate,50726f70-656c-46c6-9572-4c616d704d61,rev?*%
%TF.SameCoordinates,Original*%
%TF.FileFunction,Copper,L2,Bot*%
%TF.FilePolarity,Positive*%
%FSLAX46Y46*%
G04 Gerber Fmt 4.6, Leading zero omitted, Abs format (unit mm)*
G04 Created by KiCad (PCBNEW 8.0.6) date 2024-12-09 16:08:49*
%MOMM*%
%LPD*%
G01*
G04 APERTURE LIST*
%TA.AperFunction,ComponentPad*%
%ADD10O,2.100000X1.000000*%
%TD*%
%TA.AperFunction,ComponentPad*%
%ADD11O,1.800000X1.000000*%
%TD*%
%TA.AperFunction,HeatsinkPad*%
%ADD12C,0.600000*%
%TD*%
%TA.AperFunction,ViaPad*%
%ADD13C,0.600000*%
%TD*%
%TA.AperFunction,Conductor*%
%ADD14C,0.200000*%
%TD*%
%TA.AperFunction,Conductor*%
%ADD15C,1.000000*%
%TD*%
G04 APERTURE END LIST*
D10*
%TO.P,J101,S1,SHIELD*%
%TO.N,GND*%
X152000000Y-53680000D03*
D11*
X147800000Y-53680000D03*
D10*
X152000000Y-62320000D03*
D11*
X147800000Y-62320000D03*
%TD*%
D12*
%TO.P,U104,19,GND*%
%TO.N,GND*%
X171850000Y-58110000D03*
X170750000Y-58110000D03*
X172400000Y-58660000D03*
X171300000Y-58660000D03*
X170200000Y-58660000D03*
X171850000Y-59210000D03*
X170750000Y-59210000D03*
X172400000Y-59760000D03*
X171300000Y-59760000D03*
X170200000Y-59760000D03*
X171850000Y-60310000D03*
X170750000Y-60310000D03*
%TD*%
D13*
%TO.N,GND*%
X161800001Y-55500000D03*
X176000000Y-45100000D03*
X188500000Y-63750000D03*
X187000000Y-64250000D03*
X171299265Y-45049265D03*
X181500000Y-71500000D03*
X177000000Y-71500000D03*
X165500000Y-48250000D03*
X180252936Y-69753154D03*
X158500000Y-60000000D03*
%TO.N,/USB_D+*%
X153653012Y-57850000D03*
X170000000Y-71750000D03*
%TO.N,+5V*%
X187000000Y-54000000D03*
X153500000Y-55600000D03*
X161750000Y-44750000D03*
%TD*%
D14*
%TO.N,/USB_D+*%
X153653012Y-66903012D02*
X153653012Y-57850000D01*
X170000000Y-71750000D02*
X158500000Y-71750000D01*
X158500000Y-71750000D02*
X153653012Y-66903012D01*
D15*
%TO.N,+5V*%
X183500000Y-54000000D02*
X155100000Y-54000000D01*
X187000000Y-54000000D02*
X183500000Y-54000000D01*
D14*
X161750000Y-44750000D02*
X161750000Y-54000000D01*
D15*
X155100000Y-54000000D02*
X153500000Y-55600000D01*
%TD*%
%TA.AperFunction,Conductor*%
%TO.N,GND*%
G36*
X161750227Y-43513807D02*
G01*
X161771986Y-43502672D01*
X161795091Y-43500500D01*
X191375500Y-43500500D01*
X191442539Y-43520185D01*
X191488294Y-43572989D01*
X191499500Y-43624500D01*
X191499500Y-72375500D01*
X191479815Y-72442539D01*
X191427011Y-72488294D01*
X191375500Y-72499500D01*
X170940301Y-72499500D01*
X170873262Y-72479815D01*
X170827507Y-72427011D01*
X170817563Y-72357853D01*
X170834172Y-72314516D01*
X170833039Y-72313911D01*
X170928811Y-72134733D01*
X170928811Y-72134732D01*
X170928814Y-72134727D01*
X170986024Y-71946132D01*
X171005341Y-71750000D01*
X170986024Y-71553868D01*
X170928814Y-71365273D01*
X170928811Y-71365269D01*
X170928811Y-71365266D01*
X170835913Y-71191467D01*
X170835909Y-71191460D01*
X170710883Y-71039116D01*
X170558539Y-70914090D01*
X170558532Y-70914086D01*
X170384733Y-70821188D01*
X170384727Y-70821186D01*
X170196132Y-70763976D01*
X170196129Y-70763975D01*
X170000000Y-70744659D01*
X169803870Y-70763975D01*
X169615266Y-70821188D01*
X169441467Y-70914086D01*
X169441465Y-70914087D01*
X169437276Y-70917525D01*
X169432612Y-70921352D01*
X169368304Y-70948666D01*
X169353947Y-70949500D01*
X158882940Y-70949500D01*
X158815901Y-70929815D01*
X158795259Y-70913181D01*
X154489831Y-66607753D01*
X154456346Y-66546430D01*
X154453512Y-66520072D01*
X154453512Y-61026660D01*
X170386892Y-61026660D01*
X170386892Y-61026661D01*
X170400692Y-61035333D01*
X170400691Y-61035333D01*
X170570861Y-61094878D01*
X170749997Y-61115062D01*
X170750003Y-61115062D01*
X170929138Y-61094878D01*
X170929141Y-61094877D01*
X171099305Y-61035334D01*
X171099306Y-61035334D01*
X171113106Y-61026661D01*
X171113106Y-61026660D01*
X171486892Y-61026660D01*
X171486892Y-61026661D01*
X171500692Y-61035333D01*
X171500691Y-61035333D01*
X171670861Y-61094878D01*
X171849997Y-61115062D01*
X171850003Y-61115062D01*
X172029138Y-61094878D01*
X172029141Y-61094877D01*
X172199305Y-61035334D01*
X172199306Y-61035334D01*
X172213106Y-61026661D01*
X172213106Y-61026660D01*
X171850001Y-60663553D01*
X171850000Y-60663553D01*
X171486892Y-61026660D01*
X171113106Y-61026660D01*
X170750001Y-60663553D01*
X170750000Y-60663553D01*
X170386892Y-61026660D01*
X154453512Y-61026660D01*
X154453512Y-60476660D01*
X169836892Y-60476660D01*
X169836892Y-60476661D01*
X169850692Y-60485333D01*
X169850699Y-60485336D01*
X169923205Y-60510708D01*
X169979981Y-60551430D01*
X169999291Y-60586793D01*
X170024664Y-60659302D01*
X170033338Y-60673107D01*
X170396446Y-60310000D01*
X170376555Y-60290109D01*
X170650000Y-60290109D01*
X170650000Y-60329891D01*
X170665224Y-60366645D01*
X170693355Y-60394776D01*
X170730109Y-60410000D01*
X170769891Y-60410000D01*
X170806645Y-60394776D01*
X170834776Y-60366645D01*
X170850000Y-60329891D01*
X170850000Y-60309999D01*
X171103553Y-60309999D01*
X171300000Y-60506446D01*
X171496446Y-60310000D01*
X171476555Y-60290109D01*
X171750000Y-60290109D01*
X171750000Y-60329891D01*
X171765224Y-60366645D01*
X171793355Y-60394776D01*
X171830109Y-60410000D01*
X171869891Y-60410000D01*
X171906645Y-60394776D01*
X171934776Y-60366645D01*
X171950000Y-60329891D01*
X171950000Y-60310000D01*
X172203553Y-60310000D01*
X172566660Y-60673106D01*
X172566661Y-60673106D01*
X172575334Y-60659306D01*
X172575334Y-60659305D01*
X172600707Y-60586795D01*
X172641429Y-60530019D01*
X172676795Y-60510707D01*
X172749305Y-60485334D01*
X172749306Y-60485334D01*
X172763106Y-60476661D01*
X172763106Y-60476660D01*
X172400000Y-60113553D01*
X172334241Y-60179313D01*
X172334240Y-60179314D01*
X172203553Y-60310000D01*
X171950000Y-60310000D01*
X171950000Y-60290109D01*
X171934776Y-60253355D01*
X171906645Y-60225224D01*
X171869891Y-60210000D01*
X171830109Y-60210000D01*
X171793355Y-60225224D01*
X171765224Y-60253355D01*
X171750000Y-60290109D01*
X171476555Y-60290109D01*
X171365760Y-60179314D01*
X171300000Y-60113553D01*
X171234241Y-60179313D01*
X171234240Y-60179314D01*
X171103553Y-60309999D01*
X170850000Y-60309999D01*
X170850000Y-60290109D01*
X170834776Y-60253355D01*
X170806645Y-60225224D01*
X170769891Y-60210000D01*
X170730109Y-60210000D01*
X170693355Y-60225224D01*
X170665224Y-60253355D01*
X170650000Y-60290109D01*
X170376555Y-60290109D01*
X170199999Y-60113553D01*
X170199998Y-60113553D01*
X169836892Y-60476660D01*
X154453512Y-60476660D01*
X154453512Y-59759997D01*
X169394938Y-59759997D01*
X169394938Y-59760002D01*
X169415121Y-59939138D01*
X169474665Y-60109304D01*
X169483338Y-60123107D01*
X169846446Y-59760000D01*
X169846446Y-59759999D01*
X169826556Y-59740109D01*
X170100000Y-59740109D01*
X170100000Y-59779891D01*
X170115224Y-59816645D01*
X170143355Y-59844776D01*
X170180109Y-59860000D01*
X170219891Y-59860000D01*
X170256645Y-59844776D01*
X170284776Y-59816645D01*
X170300000Y-59779891D01*
X170300000Y-59760000D01*
X170553553Y-59760000D01*
X170599645Y-59806091D01*
X170750000Y-59956446D01*
X170946446Y-59760000D01*
X170926555Y-59740109D01*
X171200000Y-59740109D01*
X171200000Y-59779891D01*
X171215224Y-59816645D01*
X171243355Y-59844776D01*
X171280109Y-59860000D01*
X171319891Y-59860000D01*
X171356645Y-59844776D01*
X171384776Y-59816645D01*
X171400000Y-59779891D01*
X171400000Y-59760000D01*
X171653553Y-59760000D01*
X171699645Y-59806091D01*
X171850000Y-59956446D01*
X172046446Y-59760000D01*
X172026555Y-59740109D01*
X172300000Y-59740109D01*
X172300000Y-59779891D01*
X172315224Y-59816645D01*
X172343355Y-59844776D01*
X172380109Y-59860000D01*
X172419891Y-59860000D01*
X172456645Y-59844776D01*
X172484776Y-59816645D01*
X172500000Y-59779891D01*
X172500000Y-59760000D01*
X172753552Y-59760000D01*
X173116660Y-60123106D01*
X173116661Y-60123106D01*
X173125334Y-60109306D01*
X173125334Y-60109305D01*
X173184877Y-59939141D01*
X173184878Y-59939138D01*
X173205062Y-59760002D01*
X173205062Y-59759997D01*
X173184878Y-59580861D01*
X173125333Y-59410692D01*
X173116661Y-59396892D01*
X173116660Y-59396892D01*
X172753552Y-59760000D01*
X172500000Y-59760000D01*
X172500000Y-59740109D01*
X172484776Y-59703355D01*
X172456645Y-59675224D01*
X172419891Y-59660000D01*
X172380109Y-59660000D01*
X172343355Y-59675224D01*
X172315224Y-59703355D01*
X172300000Y-59740109D01*
X172026555Y-59740109D01*
X171915760Y-59629314D01*
X171850000Y-59563553D01*
X171784241Y-59629313D01*
X171784240Y-59629314D01*
X171653553Y-59760000D01*
X171400000Y-59760000D01*
X171400000Y-59740109D01*
X171384776Y-59703355D01*
X171356645Y-59675224D01*
X171319891Y-59660000D01*
X171280109Y-59660000D01*
X171243355Y-59675224D01*
X171215224Y-59703355D01*
X171200000Y-59740109D01*
X170926555Y-59740109D01*
X170815760Y-59629314D01*
X170750000Y-59563553D01*
X170684241Y-59629313D01*
X170684240Y-59629314D01*
X170553553Y-59760000D01*
X170300000Y-59760000D01*
X170300000Y-59740109D01*
X170284776Y-59703355D01*
X170256645Y-59675224D01*
X170219891Y-59660000D01*
X170180109Y-59660000D01*
X170143355Y-59675224D01*
X170115224Y-59703355D01*
X170100000Y-59740109D01*
X169826556Y-59740109D01*
X169483338Y-59396891D01*
X169483337Y-59396891D01*
X169474667Y-59410691D01*
X169474662Y-59410701D01*
X169415122Y-59580858D01*
X169415121Y-59580861D01*
X169394938Y-59759997D01*
X154453512Y-59759997D01*
X154453512Y-59210000D01*
X170003553Y-59210000D01*
X170003553Y-59210001D01*
X170199998Y-59406446D01*
X170199999Y-59406446D01*
X170350355Y-59256091D01*
X170396446Y-59210000D01*
X170376555Y-59190109D01*
X170650000Y-59190109D01*
X170650000Y-59229891D01*
X170665224Y-59266645D01*
X170693355Y-59294776D01*
X170730109Y-59310000D01*
X170769891Y-59310000D01*
X170806645Y-59294776D01*
X170834776Y-59266645D01*
X170850000Y-59229891D01*
X170850000Y-59210000D01*
X171103553Y-59210000D01*
X171149645Y-59256091D01*
X171300000Y-59406446D01*
X171496446Y-59210000D01*
X171476555Y-59190109D01*
X171750000Y-59190109D01*
X171750000Y-59229891D01*
X171765224Y-59266645D01*
X171793355Y-59294776D01*
X171830109Y-59310000D01*
X171869891Y-59310000D01*
X171906645Y-59294776D01*
X171934776Y-59266645D01*
X171950000Y-59229891D01*
X171950000Y-59210000D01*
X172203553Y-59210000D01*
X172249645Y-59256091D01*
X172400000Y-59406446D01*
X172596446Y-59210000D01*
X172400000Y-59013553D01*
X172334241Y-59079313D01*
X172334240Y-59079314D01*
X172203553Y-59210000D01*
X171950000Y-59210000D01*
X171950000Y-59190109D01*
X171934776Y-59153355D01*
X171906645Y-59125224D01*
X171869891Y-59110000D01*
X171830109Y-59110000D01*
X171793355Y-59125224D01*
X171765224Y-59153355D01*
X171750000Y-59190109D01*
X171476555Y-59190109D01*
X171365760Y-59079314D01*
X171300000Y-59013553D01*
X171234241Y-59079313D01*
X171234240Y-59079314D01*
X171103553Y-59210000D01*
X170850000Y-59210000D01*
X170850000Y-59190109D01*
X170834776Y-59153355D01*
X170806645Y-59125224D01*
X170769891Y-59110000D01*
X170730109Y-59110000D01*
X170693355Y-59125224D01*
X170665224Y-59153355D01*
X170650000Y-59190109D01*
X170376555Y-59190109D01*
X170199999Y-59013553D01*
X170003553Y-59210000D01*
X154453512Y-59210000D01*
X154453512Y-58659997D01*
X169394938Y-58659997D01*
X169394938Y-58660002D01*
X169415121Y-58839138D01*
X169474665Y-59009304D01*
X169483338Y-59023107D01*
X169846446Y-58660000D01*
X169846446Y-58659999D01*
X169826556Y-58640109D01*
X170100000Y-58640109D01*
X170100000Y-58679891D01*
X170115224Y-58716645D01*
X170143355Y-58744776D01*
X170180109Y-58760000D01*
X170219891Y-58760000D01*
X170256645Y-58744776D01*
X170284776Y-58716645D01*
X170300000Y-58679891D01*
X170300000Y-58660000D01*
X170553553Y-58660000D01*
X170599645Y-58706091D01*
X170750000Y-58856446D01*
X170946446Y-58660000D01*
X170926555Y-58640109D01*
X171200000Y-58640109D01*
X171200000Y-58679891D01*
X171215224Y-58716645D01*
X171243355Y-58744776D01*
X171280109Y-58760000D01*
X171319891Y-58760000D01*
X171356645Y-58744776D01*
X171384776Y-58716645D01*
X171400000Y-58679891D01*
X171400000Y-58660000D01*
X171653553Y-58660000D01*
X171699645Y-58706091D01*
X171850000Y-58856446D01*
X172046446Y-58660000D01*
X172026555Y-58640109D01*
X172300000Y-58640109D01*
X172300000Y-58679891D01*
X172315224Y-58716645D01*
X172343355Y-58744776D01*
X172380109Y-58760000D01*
X172419891Y-58760000D01*
X172456645Y-58744776D01*
X172484776Y-58716645D01*
X172500000Y-58679891D01*
X172500000Y-58660000D01*
X172753552Y-58660000D01*
X173116660Y-59023106D01*
X173116661Y-59023106D01*
X173125334Y-59009306D01*
X173125334Y-59009305D01*
X173184877Y-58839141D01*
X173184878Y-58839138D01*
X173205062Y-58660002D01*
X173205062Y-58659997D01*
X173184878Y-58480861D01*
X173125333Y-58310692D01*
X173116661Y-58296892D01*
X173116660Y-58296892D01*
X172753552Y-58660000D01*
X172500000Y-58660000D01*
X172500000Y-58640109D01*
X172484776Y-58603355D01*
X172456645Y-58575224D01*
X172419891Y-58560000D01*
X172380109Y-58560000D01*
X172343355Y-58575224D01*
X172315224Y-58603355D01*
X172300000Y-58640109D01*
X172026555Y-58640109D01*
X171915760Y-58529314D01*
X171850000Y-58463553D01*
X171784241Y-58529313D01*
X171784240Y-58529314D01*
X171653553Y-58660000D01*
X171400000Y-58660000D01*
X171400000Y-58640109D01*
X171384776Y-58603355D01*
X171356645Y-58575224D01*
X171319891Y-58560000D01*
X171280109Y-58560000D01*
X171243355Y-58575224D01*
X171215224Y-58603355D01*
X171200000Y-58640109D01*
X170926555Y-58640109D01*
X170815760Y-58529314D01*
X170750000Y-58463553D01*
X170684241Y-58529313D01*
X170684240Y-58529314D01*
X170553553Y-58660000D01*
X170300000Y-58660000D01*
X170300000Y-58640109D01*
X170284776Y-58603355D01*
X170256645Y-58575224D01*
X170219891Y-58560000D01*
X170180109Y-58560000D01*
X170143355Y-58575224D01*
X170115224Y-58603355D01*
X170100000Y-58640109D01*
X169826556Y-58640109D01*
X169483338Y-58296891D01*
X169483337Y-58296891D01*
X169474667Y-58310691D01*
X169474662Y-58310701D01*
X169415122Y-58480858D01*
X169415121Y-58480861D01*
X169394938Y-58659997D01*
X154453512Y-58659997D01*
X154453512Y-58496052D01*
X154473197Y-58429013D01*
X154481655Y-58417392D01*
X154488922Y-58408538D01*
X154581826Y-58234727D01*
X154639036Y-58046132D01*
X154649160Y-57943338D01*
X169836891Y-57943338D01*
X170199998Y-58306446D01*
X170348395Y-58158051D01*
X170396446Y-58109998D01*
X170376557Y-58090109D01*
X170650000Y-58090109D01*
X170650000Y-58129891D01*
X170665224Y-58166645D01*
X170693355Y-58194776D01*
X170730109Y-58210000D01*
X170769891Y-58210000D01*
X170806645Y-58194776D01*
X170834776Y-58166645D01*
X170850000Y-58129891D01*
X170850000Y-58109999D01*
X171103553Y-58109999D01*
X171300000Y-58306446D01*
X171448393Y-58158053D01*
X171496446Y-58109998D01*
X171476557Y-58090109D01*
X171750000Y-58090109D01*
X171750000Y-58129891D01*
X171765224Y-58166645D01*
X171793355Y-58194776D01*
X171830109Y-58210000D01*
X171869891Y-58210000D01*
X171906645Y-58194776D01*
X171934776Y-58166645D01*
X171950000Y-58129891D01*
X171950000Y-58109998D01*
X172203553Y-58109998D01*
X172203553Y-58109999D01*
X172400000Y-58306446D01*
X172400001Y-58306446D01*
X172763107Y-57943338D01*
X172749302Y-57934664D01*
X172676793Y-57909291D01*
X172620017Y-57868569D01*
X172600708Y-57833205D01*
X172575336Y-57760699D01*
X172575333Y-57760692D01*
X172566661Y-57746892D01*
X172566660Y-57746892D01*
X172203553Y-58109998D01*
X171950000Y-58109998D01*
X171950000Y-58090109D01*
X171934776Y-58053355D01*
X171906645Y-58025224D01*
X171869891Y-58010000D01*
X171830109Y-58010000D01*
X171793355Y-58025224D01*
X171765224Y-58053355D01*
X171750000Y-58090109D01*
X171476557Y-58090109D01*
X171300001Y-57913553D01*
X171103553Y-58109999D01*
X170850000Y-58109999D01*
X170850000Y-58090109D01*
X170834776Y-58053355D01*
X170806645Y-58025224D01*
X170769891Y-58010000D01*
X170730109Y-58010000D01*
X170693355Y-58025224D01*
X170665224Y-58053355D01*
X170650000Y-58090109D01*
X170376557Y-58090109D01*
X170033338Y-57746891D01*
X170024664Y-57760695D01*
X170024659Y-57760705D01*
X169999291Y-57833205D01*
X169958569Y-57889981D01*
X169923205Y-57909291D01*
X169850705Y-57934659D01*
X169850695Y-57934664D01*
X169836891Y-57943338D01*
X154649160Y-57943338D01*
X154658353Y-57850000D01*
X154639036Y-57653868D01*
X154581826Y-57465273D01*
X154581823Y-57465269D01*
X154581823Y-57465266D01*
X154543376Y-57393337D01*
X170386891Y-57393337D01*
X170386891Y-57393338D01*
X170750000Y-57756446D01*
X170750001Y-57756446D01*
X171113107Y-57393338D01*
X171113105Y-57393337D01*
X171486891Y-57393337D01*
X171486891Y-57393338D01*
X171850000Y-57756446D01*
X171850001Y-57756446D01*
X172213107Y-57393338D01*
X172199304Y-57384665D01*
X172029138Y-57325121D01*
X171850003Y-57304938D01*
X171849997Y-57304938D01*
X171670861Y-57325121D01*
X171670858Y-57325122D01*
X171500701Y-57384662D01*
X171500691Y-57384667D01*
X171486891Y-57393337D01*
X171113105Y-57393337D01*
X171099304Y-57384665D01*
X170929138Y-57325121D01*
X170750003Y-57304938D01*
X170749997Y-57304938D01*
X170570861Y-57325121D01*
X170570858Y-57325122D01*
X170400701Y-57384662D01*
X170400691Y-57384667D01*
X170386891Y-57393337D01*
X154543376Y-57393337D01*
X154488925Y-57291467D01*
X154488921Y-57291460D01*
X154363895Y-57139116D01*
X154211551Y-57014090D01*
X154211544Y-57014086D01*
X154037742Y-56921187D01*
X154027480Y-56918074D01*
X153969042Y-56879775D01*
X153940587Y-56815962D01*
X153951149Y-56746896D01*
X153997374Y-56694503D01*
X154007174Y-56688934D01*
X154129199Y-56626760D01*
X154282074Y-56515690D01*
X155560944Y-55236818D01*
X155622267Y-55203334D01*
X155648625Y-55200500D01*
X187094486Y-55200500D01*
X187281118Y-55170940D01*
X187460832Y-55112547D01*
X187629199Y-55026760D01*
X187782073Y-54915690D01*
X187915690Y-54782073D01*
X188026760Y-54629199D01*
X188112547Y-54460832D01*
X188170940Y-54281118D01*
X188200500Y-54094486D01*
X188200500Y-53905513D01*
X188170940Y-53718881D01*
X188142030Y-53629908D01*
X188112547Y-53539168D01*
X188112545Y-53539165D01*
X188112545Y-53539163D01*
X188035685Y-53388318D01*
X188026760Y-53370801D01*
X187915690Y-53217927D01*
X187782073Y-53084310D01*
X187629199Y-52973240D01*
X187460836Y-52887454D01*
X187281118Y-52829059D01*
X187094486Y-52799500D01*
X187094481Y-52799500D01*
X183594481Y-52799500D01*
X162674500Y-52799500D01*
X162607461Y-52779815D01*
X162561706Y-52727011D01*
X162550500Y-52675500D01*
X162550500Y-45396052D01*
X162570185Y-45329013D01*
X162578643Y-45317392D01*
X162585910Y-45308538D01*
X162678814Y-45134727D01*
X162736024Y-44946132D01*
X162755341Y-44750000D01*
X162736024Y-44553868D01*
X162678814Y-44365273D01*
X162678811Y-44365269D01*
X162678811Y-44365266D01*
X162585913Y-44191467D01*
X162585909Y-44191460D01*
X162460883Y-44039116D01*
X162308539Y-43914090D01*
X162308532Y-43914086D01*
X162134733Y-43821188D01*
X162134727Y-43821186D01*
X161946132Y-43763976D01*
X161946129Y-43763975D01*
X161782937Y-43747903D01*
X161752242Y-43735508D01*
X161739844Y-43743477D01*
X161717063Y-43747903D01*
X161553870Y-43763975D01*
X161365266Y-43821188D01*
X161191467Y-43914086D01*
X161191460Y-43914090D01*
X161039116Y-44039116D01*
X160914090Y-44191460D01*
X160914086Y-44191467D01*
X160821188Y-44365266D01*
X160763975Y-44553870D01*
X160744659Y-44750000D01*
X160763975Y-44946129D01*
X160821187Y-45134730D01*
X160914090Y-45308538D01*
X160921350Y-45317385D01*
X160948666Y-45381691D01*
X160949500Y-45396052D01*
X160949500Y-52675500D01*
X160929815Y-52742539D01*
X160877011Y-52788294D01*
X160825500Y-52799500D01*
X155005514Y-52799500D01*
X154818881Y-52829059D01*
X154639163Y-52887454D01*
X154470800Y-52973240D01*
X154383579Y-53036610D01*
X154317927Y-53084310D01*
X154317925Y-53084312D01*
X154317923Y-53084312D01*
X153758956Y-53643279D01*
X153697633Y-53676764D01*
X153627941Y-53671780D01*
X153572008Y-53629908D01*
X153549658Y-53579789D01*
X153511572Y-53388318D01*
X153511569Y-53388306D01*
X153436192Y-53206328D01*
X153436185Y-53206315D01*
X153326751Y-53042537D01*
X153326748Y-53042533D01*
X153187466Y-52903251D01*
X153187462Y-52903248D01*
X153023684Y-52793814D01*
X153023671Y-52793807D01*
X152841693Y-52718430D01*
X152841681Y-52718427D01*
X152648495Y-52680000D01*
X152250000Y-52680000D01*
X152250000Y-53380000D01*
X151750000Y-53380000D01*
X151750000Y-52680000D01*
X151351504Y-52680000D01*
X151158318Y-52718427D01*
X151158306Y-52718430D01*
X150976328Y-52793807D01*
X150976315Y-52793814D01*
X150812537Y-52903248D01*
X150812533Y-52903251D01*
X150673251Y-53042533D01*
X150673248Y-53042537D01*
X150563814Y-53206315D01*
X150563807Y-53206328D01*
X150488430Y-53388307D01*
X150488430Y-53388309D01*
X150480138Y-53430000D01*
X151283012Y-53430000D01*
X151265795Y-53439940D01*
X151209940Y-53495795D01*
X151170444Y-53564204D01*
X151150000Y-53640504D01*
X151150000Y-53719496D01*
X151170444Y-53795796D01*
X151209940Y-53864205D01*
X151265795Y-53920060D01*
X151283012Y-53930000D01*
X150480138Y-53930000D01*
X150488430Y-53971690D01*
X150488430Y-53971692D01*
X150563807Y-54153671D01*
X150563814Y-54153684D01*
X150673248Y-54317462D01*
X150673251Y-54317466D01*
X150812533Y-54456748D01*
X150812537Y-54456751D01*
X150976315Y-54566185D01*
X150976319Y-54566187D01*
X151070055Y-54605013D01*
X151124459Y-54648854D01*
X151146524Y-54715148D01*
X151129245Y-54782847D01*
X151110287Y-54807254D01*
X151099504Y-54818037D01*
X151036905Y-54926463D01*
X151036905Y-54926464D01*
X151004500Y-55047399D01*
X151004500Y-55172601D01*
X151036905Y-55293536D01*
X151099505Y-55401964D01*
X151188036Y-55490495D01*
X151296464Y-55553095D01*
X151417399Y-55585500D01*
X151417401Y-55585500D01*
X151542599Y-55585500D01*
X151542601Y-55585500D01*
X151663536Y-55553095D01*
X151771964Y-55490495D01*
X151860495Y-55401964D01*
X151923095Y-55293536D01*
X151955500Y-55172601D01*
X151955500Y-55047399D01*
X151923095Y-54926464D01*
X151860495Y-54818036D01*
X151786319Y-54743860D01*
X151752834Y-54682537D01*
X151750000Y-54656179D01*
X151750000Y-53980000D01*
X152250000Y-53980000D01*
X152250000Y-54680000D01*
X152441155Y-54680000D01*
X152508194Y-54699685D01*
X152553949Y-54752489D01*
X152563893Y-54821647D01*
X152541473Y-54876885D01*
X152473242Y-54970797D01*
X152387454Y-55139163D01*
X152329059Y-55318881D01*
X152299500Y-55505513D01*
X152299500Y-55694486D01*
X152329059Y-55881118D01*
X152387454Y-56060836D01*
X152473240Y-56229199D01*
X152584310Y-56382074D01*
X152717926Y-56515690D01*
X152870801Y-56626760D01*
X152950347Y-56667290D01*
X153039163Y-56712545D01*
X153039165Y-56712545D01*
X153039168Y-56712547D01*
X153131525Y-56742556D01*
X153147440Y-56747727D01*
X153205115Y-56787165D01*
X153232313Y-56851524D01*
X153220398Y-56920370D01*
X153173153Y-56971846D01*
X153167575Y-56975016D01*
X153094475Y-57014088D01*
X153094472Y-57014090D01*
X152942128Y-57139116D01*
X152817102Y-57291460D01*
X152817098Y-57291467D01*
X152724200Y-57465266D01*
X152666987Y-57653870D01*
X152647671Y-57850000D01*
X152666987Y-58046129D01*
X152724199Y-58234730D01*
X152764802Y-58310692D01*
X152817102Y-58408538D01*
X152824362Y-58417385D01*
X152851678Y-58481691D01*
X152852512Y-58496052D01*
X152852512Y-61209487D01*
X152832827Y-61276526D01*
X152780023Y-61322281D01*
X152710865Y-61332225D01*
X152704322Y-61331105D01*
X152648490Y-61320000D01*
X152250000Y-61320000D01*
X152250000Y-62020000D01*
X151750000Y-62020000D01*
X151750000Y-61343821D01*
X151769685Y-61276782D01*
X151786319Y-61256140D01*
X151788393Y-61254066D01*
X151860495Y-61181964D01*
X151923095Y-61073536D01*
X151955500Y-60952601D01*
X151955500Y-60827399D01*
X151923095Y-60706464D01*
X151860495Y-60598036D01*
X151771964Y-60509505D01*
X151663536Y-60446905D01*
X151663537Y-60446905D01*
X151623224Y-60436103D01*
X151542601Y-60414500D01*
X151417399Y-60414500D01*
X151336775Y-60436103D01*
X151296463Y-60446905D01*
X151188037Y-60509504D01*
X151188034Y-60509506D01*
X151099506Y-60598034D01*
X151099504Y-60598037D01*
X151036905Y-60706463D01*
X151036905Y-60706464D01*
X151004500Y-60827399D01*
X151004500Y-60952601D01*
X151026669Y-61035334D01*
X151036905Y-61073536D01*
X151099504Y-61181962D01*
X151099506Y-61181965D01*
X151110284Y-61192743D01*
X151143769Y-61254066D01*
X151138785Y-61323758D01*
X151096913Y-61379691D01*
X151070056Y-61394985D01*
X150976324Y-61433809D01*
X150976315Y-61433814D01*
X150812537Y-61543248D01*
X150812533Y-61543251D01*
X150673251Y-61682533D01*
X150673248Y-61682537D01*
X150563814Y-61846315D01*
X150563807Y-61846328D01*
X150488430Y-62028307D01*
X150488430Y-62028309D01*
X150480138Y-62070000D01*
X151283012Y-62070000D01*
X151265795Y-62079940D01*
X151209940Y-62135795D01*
X151170444Y-62204204D01*
X151150000Y-62280504D01*
X151150000Y-62359496D01*
X151170444Y-62435796D01*
X151209940Y-62504205D01*
X151265795Y-62560060D01*
X151283012Y-62570000D01*
X150480138Y-62570000D01*
X150488430Y-62611690D01*
X150488430Y-62611692D01*
X150563807Y-62793671D01*
X150563814Y-62793684D01*
X150673248Y-62957462D01*
X150673251Y-62957466D01*
X150812533Y-63096748D01*
X150812537Y-63096751D01*
X150976315Y-63206185D01*
X150976328Y-63206192D01*
X151158306Y-63281569D01*
X151158318Y-63281572D01*
X151351504Y-63319999D01*
X151351508Y-63320000D01*
X151750000Y-63320000D01*
X151750000Y-62620000D01*
X152250000Y-62620000D01*
X152250000Y-63320000D01*
X152648492Y-63320000D01*
X152648492Y-63319999D01*
X152704320Y-63308895D01*
X152773912Y-63315122D01*
X152829089Y-63357985D01*
X152852334Y-63423875D01*
X152852512Y-63430512D01*
X152852512Y-66981858D01*
X152883273Y-67136501D01*
X152883276Y-67136513D01*
X152943614Y-67282184D01*
X152943621Y-67282197D01*
X153031222Y-67413300D01*
X153031225Y-67413304D01*
X157878211Y-72260289D01*
X157905741Y-72287819D01*
X157939226Y-72349142D01*
X157934242Y-72418834D01*
X157892370Y-72474767D01*
X157826906Y-72499184D01*
X157818060Y-72499500D01*
X142624500Y-72499500D01*
X142557461Y-72479815D01*
X142511706Y-72427011D01*
X142500500Y-72375500D01*
X142500500Y-62070000D01*
X146430138Y-62070000D01*
X147233012Y-62070000D01*
X147215795Y-62079940D01*
X147159940Y-62135795D01*
X147120444Y-62204204D01*
X147100000Y-62280504D01*
X147100000Y-62359496D01*
X147120444Y-62435796D01*
X147159940Y-62504205D01*
X147215795Y-62560060D01*
X147233012Y-62570000D01*
X146430138Y-62570000D01*
X146438430Y-62611690D01*
X146438430Y-62611692D01*
X146513807Y-62793671D01*
X146513814Y-62793684D01*
X146623248Y-62957462D01*
X146623251Y-62957466D01*
X146762533Y-63096748D01*
X146762537Y-63096751D01*
X146926315Y-63206185D01*
X146926328Y-63206192D01*
X147108306Y-63281569D01*
X147108318Y-63281572D01*
X147301504Y-63319999D01*
X147301508Y-63320000D01*
X147550000Y-63320000D01*
X147550000Y-62620000D01*
X148050000Y-62620000D01*
X148050000Y-63320000D01*
X148298492Y-63320000D01*
X148298495Y-63319999D01*
X148491681Y-63281572D01*
X148491693Y-63281569D01*
X148673671Y-63206192D01*
X148673684Y-63206185D01*
X148837462Y-63096751D01*
X148837466Y-63096748D01*
X148976748Y-62957466D01*
X148976751Y-62957462D01*
X149086185Y-62793684D01*
X149086192Y-62793671D01*
X149161569Y-62611692D01*
X149161569Y-62611690D01*
X149169862Y-62570000D01*
X148366988Y-62570000D01*
X148384205Y-62560060D01*
X148440060Y-62504205D01*
X148479556Y-62435796D01*
X148500000Y-62359496D01*
X148500000Y-62280504D01*
X148479556Y-62204204D01*
X148440060Y-62135795D01*
X148384205Y-62079940D01*
X148366988Y-62070000D01*
X149169862Y-62070000D01*
X149161569Y-62028309D01*
X149161569Y-62028307D01*
X149086192Y-61846328D01*
X149086185Y-61846315D01*
X148976751Y-61682537D01*
X148976748Y-61682533D01*
X148837466Y-61543251D01*
X148837462Y-61543248D01*
X148673684Y-61433814D01*
X148673671Y-61433807D01*
X148491693Y-61358430D01*
X148491681Y-61358427D01*
X148298495Y-61320000D01*
X148050000Y-61320000D01*
X148050000Y-62020000D01*
X147550000Y-62020000D01*
X147550000Y-61320000D01*
X147301504Y-61320000D01*
X147108318Y-61358427D01*
X147108306Y-61358430D01*
X146926328Y-61433807D01*
X146926315Y-61433814D01*
X146762537Y-61543248D01*
X146762533Y-61543251D01*
X146623251Y-61682533D01*
X146623248Y-61682537D01*
X146513814Y-61846315D01*
X146513807Y-61846328D01*
X146438430Y-62028307D01*
X146438430Y-62028309D01*
X146430138Y-62070000D01*
X142500500Y-62070000D01*
X142500500Y-53430000D01*
X146430138Y-53430000D01*
X147233012Y-53430000D01*
X147215795Y-53439940D01*
X147159940Y-53495795D01*
X147120444Y-53564204D01*
X147100000Y-53640504D01*
X147100000Y-53719496D01*
X147120444Y-53795796D01*
X147159940Y-53864205D01*
X147215795Y-53920060D01*
X147233012Y-53930000D01*
X146430138Y-53930000D01*
X146438430Y-53971690D01*
X146438430Y-53971692D01*
X146513807Y-54153671D01*
X146513814Y-54153684D01*
X146623248Y-54317462D01*
X146623251Y-54317466D01*
X146762533Y-54456748D01*
X146762537Y-54456751D01*
X146926315Y-54566185D01*
X146926328Y-54566192D01*
X147108306Y-54641569D01*
X147108318Y-54641572D01*
X147301504Y-54679999D01*
X147301508Y-54680000D01*
X147550000Y-54680000D01*
X147550000Y-53980000D01*
X148050000Y-53980000D01*
X148050000Y-54680000D01*
X148298492Y-54680000D01*
X148298495Y-54679999D01*
X148491681Y-54641572D01*
X148491693Y-54641569D01*
X148673671Y-54566192D01*
X148673684Y-54566185D01*
X148837462Y-54456751D01*
X148837466Y-54456748D01*
X148976748Y-54317466D01*
X148976751Y-54317462D01*
X149086185Y-54153684D01*
X149086192Y-54153671D01*
X149161569Y-53971692D01*
X149161569Y-53971690D01*
X149169862Y-53930000D01*
X148366988Y-53930000D01*
X148384205Y-53920060D01*
X148440060Y-53864205D01*
X148479556Y-53795796D01*
X148500000Y-53719496D01*
X148500000Y-53640504D01*
X148479556Y-53564204D01*
X148440060Y-53495795D01*
X148384205Y-53439940D01*
X148366988Y-53430000D01*
X149169862Y-53430000D01*
X149161569Y-53388309D01*
X149161569Y-53388307D01*
X149086192Y-53206328D01*
X149086185Y-53206315D01*
X148976751Y-53042537D01*
X148976748Y-53042533D01*
X148837466Y-52903251D01*
X148837462Y-52903248D01*
X148673684Y-52793814D01*
X148673671Y-52793807D01*
X148491693Y-52718430D01*
X148491681Y-52718427D01*
X148298495Y-52680000D01*
X148050000Y-52680000D01*
X148050000Y-53380000D01*
X147550000Y-53380000D01*
X147550000Y-52680000D01*
X147301504Y-52680000D01*
X147108318Y-52718427D01*
X147108306Y-52718430D01*
X146926328Y-52793807D01*
X146926315Y-52793814D01*
X146762537Y-52903248D01*
X146762533Y-52903251D01*
X146623251Y-53042533D01*
X146623248Y-53042537D01*
X146513814Y-53206315D01*
X146513807Y-53206328D01*
X146438430Y-53388307D01*
X146438430Y-53388309D01*
X146430138Y-53430000D01*
X142500500Y-53430000D01*
X142500500Y-43624500D01*
X142520185Y-43557461D01*
X142572989Y-43511706D01*
X142624500Y-43500500D01*
X161704909Y-43500500D01*
X161750227Y-43513807D01*
G37*
%TD.AperFunction*%
%TD*%
M02*
