%TF.GenerationSoftware,KiCad,Pcbnew,8.0.6*%
%TF.CreationDate,2024-12-09T16:08:49+11:00*%
%TF.ProjectId,PropellerLampMate,50726f70-656c-46c6-9572-4c616d704d61,rev?*%
%TF.SameCoordinates,Original*%
%TF.FileFunction,Soldermask,Top*%
%TF.FilePolarity,Negative*%
%FSLAX46Y46*%
G04 Gerber Fmt 4.6, Leading zero omitted, Abs format (unit mm)*
G04 Created by KiCad (PCBNEW 8.0.6) date 2024-12-09 16:08:49*
%MOMM*%
%LPD*%
G01*
G04 APERTURE LIST*
G04 Aperture macros list*
%AMRoundRect*
0 Rectangle with rounded corners*
0 $1 Rounding radius*
0 $2 $3 $4 $5 $6 $7 $8 $9 X,Y pos of 4 corners*
0 Add a 4 corners polygon primitive as box body*
4,1,4,$2,$3,$4,$5,$6,$7,$8,$9,$2,$3,0*
0 Add four circle primitives for the rounded corners*
1,1,$1+$1,$2,$3*
1,1,$1+$1,$4,$5*
1,1,$1+$1,$6,$7*
1,1,$1+$1,$8,$9*
0 Add four rect primitives between the rounded corners*
20,1,$1+$1,$2,$3,$4,$5,0*
20,1,$1+$1,$4,$5,$6,$7,0*
20,1,$1+$1,$6,$7,$8,$9,0*
20,1,$1+$1,$8,$9,$2,$3,0*%
%AMFreePoly0*
4,1,15,1.100000,0.175000,0.750000,0.175000,0.750000,-0.175000,1.100000,-0.175000,1.100000,-0.475000,0.750000,-0.475000,-0.750000,-0.475000,-1.100000,-0.475000,-1.100000,-0.175000,-0.750000,-0.175000,-0.750000,0.175000,-1.100000,0.175000,-1.100000,0.475000,1.100000,0.475000,1.100000,0.175000,1.100000,0.175000,$1*%
G04 Aperture macros list end*
%ADD10RoundRect,0.225000X0.250000X-0.225000X0.250000X0.225000X-0.250000X0.225000X-0.250000X-0.225000X0*%
%ADD11RoundRect,0.200000X0.275000X-0.200000X0.275000X0.200000X-0.275000X0.200000X-0.275000X-0.200000X0*%
%ADD12RoundRect,0.200000X-0.200000X-0.275000X0.200000X-0.275000X0.200000X0.275000X-0.200000X0.275000X0*%
%ADD13C,0.650000*%
%ADD14R,1.240000X0.600000*%
%ADD15R,1.240000X0.300000*%
%ADD16O,2.100000X1.000000*%
%ADD17O,1.800000X1.000000*%
%ADD18RoundRect,0.225000X0.225000X0.250000X-0.225000X0.250000X-0.225000X-0.250000X0.225000X-0.250000X0*%
%ADD19RoundRect,0.200000X-0.275000X0.200000X-0.275000X-0.200000X0.275000X-0.200000X0.275000X0.200000X0*%
%ADD20RoundRect,0.225000X-0.250000X0.225000X-0.250000X-0.225000X0.250000X-0.225000X0.250000X0.225000X0*%
%ADD21RoundRect,0.100000X0.712500X0.100000X-0.712500X0.100000X-0.712500X-0.100000X0.712500X-0.100000X0*%
%ADD22RoundRect,0.200000X0.200000X0.275000X-0.200000X0.275000X-0.200000X-0.275000X0.200000X-0.275000X0*%
%ADD23R,0.900000X1.500000*%
%ADD24C,0.600000*%
%ADD25R,2.900000X2.900000*%
%ADD26FreePoly0,0.000000*%
%ADD27RoundRect,0.075000X-0.100000X-0.075000X0.100000X-0.075000X0.100000X0.075000X-0.100000X0.075000X0*%
%ADD28RoundRect,0.058750X-0.376250X-0.058750X0.376250X-0.058750X0.376250X0.058750X-0.376250X0.058750X0*%
%ADD29RoundRect,0.250000X1.075000X-0.425000X1.075000X0.425000X-1.075000X0.425000X-1.075000X-0.425000X0*%
G04 APERTURE END LIST*
D10*
%TO.C,C101*%
X176000000Y-47525000D03*
X176000000Y-45975000D03*
%TD*%
D11*
%TO.C,R108*%
X171250000Y-47575000D03*
X171250000Y-45925000D03*
%TD*%
D12*
%TO.C,R105*%
X162925000Y-45200000D03*
X164575000Y-45200000D03*
%TD*%
D13*
%TO.C,J101*%
X151480000Y-55110000D03*
X151480000Y-60890000D03*
D14*
X152600000Y-54800000D03*
X152600000Y-55600000D03*
D15*
X152600000Y-56750000D03*
X152600000Y-57750000D03*
X152600000Y-58250000D03*
X152600000Y-59250000D03*
D14*
X152600000Y-60400000D03*
X152600000Y-61200000D03*
X152600000Y-61200000D03*
X152600000Y-60400000D03*
D15*
X152600000Y-59750000D03*
X152600000Y-58750000D03*
X152600000Y-57250000D03*
X152600000Y-56250000D03*
D14*
X152600000Y-55600000D03*
X152600000Y-54800000D03*
D16*
X152000000Y-53680000D03*
D17*
X147800000Y-53680000D03*
D16*
X152000000Y-62320000D03*
D17*
X147800000Y-62320000D03*
%TD*%
D18*
%TO.C,C102*%
X162075001Y-60000000D03*
X160525001Y-60000000D03*
%TD*%
D11*
%TO.C,R102*%
X177500000Y-70575000D03*
X177500000Y-68925000D03*
%TD*%
D19*
%TO.C,R107*%
X173000000Y-45925000D03*
X173000000Y-47575000D03*
%TD*%
D20*
%TO.C,C103*%
X179500000Y-69000000D03*
X179500000Y-70550000D03*
%TD*%
D11*
%TO.C,R103*%
X174250000Y-70575000D03*
X174250000Y-68925000D03*
%TD*%
D21*
%TO.C,U103*%
X160412501Y-57475000D03*
X160412501Y-56825000D03*
X160412501Y-56175000D03*
X160412501Y-55525000D03*
X156187501Y-55525000D03*
X156187501Y-56175000D03*
X156187501Y-56825000D03*
X156187501Y-57475000D03*
%TD*%
D20*
%TO.C,C104*%
X181500000Y-69000000D03*
X181500000Y-70550000D03*
%TD*%
D22*
%TO.C,R106*%
X168325000Y-45200000D03*
X166675000Y-45200000D03*
%TD*%
D23*
%TO.C,U104*%
X177500000Y-49500000D03*
X176000000Y-49500000D03*
X174500000Y-49500000D03*
X173000000Y-49500000D03*
X171500000Y-49500000D03*
X170000000Y-49500000D03*
X168500000Y-49500000D03*
X167000000Y-49500000D03*
X165500000Y-49500000D03*
X165500000Y-67000000D03*
X167000000Y-67000000D03*
X168500000Y-67000000D03*
X170000000Y-67000000D03*
X171500000Y-67000000D03*
X173000000Y-67000000D03*
X174500000Y-67000000D03*
X176000000Y-67000000D03*
X177500000Y-67000000D03*
D24*
X171850000Y-58110000D03*
X170750000Y-58110000D03*
X172400000Y-58660000D03*
X171300000Y-58660000D03*
X170200000Y-58660000D03*
X171850000Y-59210000D03*
D25*
X171300000Y-59210000D03*
D24*
X170750000Y-59210000D03*
X172400000Y-59760000D03*
X171300000Y-59760000D03*
X170200000Y-59760000D03*
X171850000Y-60310000D03*
X170750000Y-60310000D03*
%TD*%
D26*
%TO.C,U102*%
X187000000Y-62675000D03*
D27*
X186075000Y-63650000D03*
D28*
X187040000Y-63650000D03*
D27*
X187925000Y-63650000D03*
%TD*%
D12*
%TO.C,R101*%
X155975001Y-60000000D03*
X157625001Y-60000000D03*
%TD*%
D29*
%TO.C,D101*%
X187000000Y-60250000D03*
X187000000Y-55750000D03*
%TD*%
M02*
