%TF.GenerationSoftware,KiCad,Pcbnew,8.0.6*%
%TF.CreationDate,2024-12-09T16:08:49+11:00*%
%TF.ProjectId,PropellerLampMate,50726f70-656c-46c6-9572-4c616d704d61,rev?*%
%TF.SameCoordinates,Original*%
%TF.FileFunction,Copper,L1,Top*%
%TF.FilePolarity,Positive*%
%FSLAX46Y46*%
G04 Gerber Fmt 4.6, Leading zero omitted, Abs format (unit mm)*
G04 Created by KiCad (PCBNEW 8.0.6) date 2024-12-09 16:08:49*
%MOMM*%
%LPD*%
G01*
G04 APERTURE LIST*
G04 Aperture macros list*
%AMRoundRect*
0 Rectangle with rounded corners*
0 $1 Rounding radius*
0 $2 $3 $4 $5 $6 $7 $8 $9 X,Y pos of 4 corners*
0 Add a 4 corners polygon primitive as box body*
4,1,4,$2,$3,$4,$5,$6,$7,$8,$9,$2,$3,0*
0 Add four circle primitives for the rounded corners*
1,1,$1+$1,$2,$3*
1,1,$1+$1,$4,$5*
1,1,$1+$1,$6,$7*
1,1,$1+$1,$8,$9*
0 Add four rect primitives between the rounded corners*
20,1,$1+$1,$2,$3,$4,$5,0*
20,1,$1+$1,$4,$5,$6,$7,0*
20,1,$1+$1,$6,$7,$8,$9,0*
20,1,$1+$1,$8,$9,$2,$3,0*%
%AMFreePoly0*
4,1,15,1.100000,0.175000,0.750000,0.175000,0.750000,-0.175000,1.100000,-0.175000,1.100000,-0.475000,0.750000,-0.475000,-0.750000,-0.475000,-1.100000,-0.475000,-1.100000,-0.175000,-0.750000,-0.175000,-0.750000,0.175000,-1.100000,0.175000,-1.100000,0.475000,1.100000,0.475000,1.100000,0.175000,1.100000,0.175000,$1*%
G04 Aperture macros list end*
%TA.AperFunction,SMDPad,CuDef*%
%ADD10RoundRect,0.225000X0.250000X-0.225000X0.250000X0.225000X-0.250000X0.225000X-0.250000X-0.225000X0*%
%TD*%
%TA.AperFunction,SMDPad,CuDef*%
%ADD11RoundRect,0.200000X0.275000X-0.200000X0.275000X0.200000X-0.275000X0.200000X-0.275000X-0.200000X0*%
%TD*%
%TA.AperFunction,SMDPad,CuDef*%
%ADD12RoundRect,0.200000X-0.200000X-0.275000X0.200000X-0.275000X0.200000X0.275000X-0.200000X0.275000X0*%
%TD*%
%TA.AperFunction,SMDPad,CuDef*%
%ADD13R,1.240000X0.600000*%
%TD*%
%TA.AperFunction,SMDPad,CuDef*%
%ADD14R,1.240000X0.300000*%
%TD*%
%TA.AperFunction,ComponentPad*%
%ADD15O,2.100000X1.000000*%
%TD*%
%TA.AperFunction,ComponentPad*%
%ADD16O,1.800000X1.000000*%
%TD*%
%TA.AperFunction,SMDPad,CuDef*%
%ADD17RoundRect,0.225000X0.225000X0.250000X-0.225000X0.250000X-0.225000X-0.250000X0.225000X-0.250000X0*%
%TD*%
%TA.AperFunction,SMDPad,CuDef*%
%ADD18RoundRect,0.200000X-0.275000X0.200000X-0.275000X-0.200000X0.275000X-0.200000X0.275000X0.200000X0*%
%TD*%
%TA.AperFunction,SMDPad,CuDef*%
%ADD19RoundRect,0.225000X-0.250000X0.225000X-0.250000X-0.225000X0.250000X-0.225000X0.250000X0.225000X0*%
%TD*%
%TA.AperFunction,SMDPad,CuDef*%
%ADD20RoundRect,0.100000X0.712500X0.100000X-0.712500X0.100000X-0.712500X-0.100000X0.712500X-0.100000X0*%
%TD*%
%TA.AperFunction,SMDPad,CuDef*%
%ADD21RoundRect,0.200000X0.200000X0.275000X-0.200000X0.275000X-0.200000X-0.275000X0.200000X-0.275000X0*%
%TD*%
%TA.AperFunction,SMDPad,CuDef*%
%ADD22R,0.900000X1.500000*%
%TD*%
%TA.AperFunction,HeatsinkPad*%
%ADD23C,0.600000*%
%TD*%
%TA.AperFunction,SMDPad,CuDef*%
%ADD24R,2.900000X2.900000*%
%TD*%
%TA.AperFunction,SMDPad,CuDef*%
%ADD25FreePoly0,0.000000*%
%TD*%
%TA.AperFunction,SMDPad,CuDef*%
%ADD26RoundRect,0.075000X-0.100000X-0.075000X0.100000X-0.075000X0.100000X0.075000X-0.100000X0.075000X0*%
%TD*%
%TA.AperFunction,SMDPad,CuDef*%
%ADD27RoundRect,0.058750X-0.376250X-0.058750X0.376250X-0.058750X0.376250X0.058750X-0.376250X0.058750X0*%
%TD*%
%TA.AperFunction,SMDPad,CuDef*%
%ADD28RoundRect,0.250000X1.075000X-0.425000X1.075000X0.425000X-1.075000X0.425000X-1.075000X-0.425000X0*%
%TD*%
%TA.AperFunction,ViaPad*%
%ADD29C,0.600000*%
%TD*%
%TA.AperFunction,Conductor*%
%ADD30C,0.200000*%
%TD*%
%TA.AperFunction,Conductor*%
%ADD31C,0.500000*%
%TD*%
%TA.AperFunction,Conductor*%
%ADD32C,1.000000*%
%TD*%
G04 APERTURE END LIST*
D10*
%TO.P,C101,1*%
%TO.N,/~{RST}*%
X176000000Y-47525000D03*
%TO.P,C101,2*%
%TO.N,GND*%
X176000000Y-45975000D03*
%TD*%
D11*
%TO.P,R108,1*%
%TO.N,/Vcc_scaled*%
X171250000Y-47575000D03*
%TO.P,R108,2*%
%TO.N,GND*%
X171250000Y-45925000D03*
%TD*%
D12*
%TO.P,R105,1*%
%TO.N,+5V*%
X162925000Y-45200000D03*
%TO.P,R105,2*%
%TO.N,Net-(U102-G)*%
X164575000Y-45200000D03*
%TD*%
D13*
%TO.P,J101,A1,GND*%
%TO.N,GND*%
X152600000Y-54800000D03*
%TO.P,J101,A4,VBUS*%
%TO.N,+5V*%
X152600000Y-55600000D03*
D14*
%TO.P,J101,A5,CC1*%
%TO.N,Net-(J101-CC1)*%
X152600000Y-56750000D03*
%TO.P,J101,A6,D+*%
%TO.N,/USB_D+*%
X152600000Y-57750000D03*
%TO.P,J101,A7,D-*%
%TO.N,/USB_D-*%
X152600000Y-58250000D03*
%TO.P,J101,A8,SBU1*%
%TO.N,unconnected-(J101-SBU1-PadA8)*%
X152600000Y-59250000D03*
D13*
%TO.P,J101,A9,VBUS*%
%TO.N,+5V*%
X152600000Y-60400000D03*
%TO.P,J101,A12,GND*%
%TO.N,GND*%
X152600000Y-61200000D03*
%TO.P,J101,B1,GND*%
X152600000Y-61200000D03*
%TO.P,J101,B4,VBUS*%
%TO.N,+5V*%
X152600000Y-60400000D03*
D14*
%TO.P,J101,B5,CC2*%
%TO.N,Net-(J101-CC1)*%
X152600000Y-59750000D03*
%TO.P,J101,B6,D+*%
%TO.N,/USB_D+*%
X152600000Y-58750000D03*
%TO.P,J101,B7,D-*%
%TO.N,/USB_D-*%
X152600000Y-57250000D03*
%TO.P,J101,B8,SBU2*%
%TO.N,unconnected-(J101-SBU2-PadB8)*%
X152600000Y-56250000D03*
D13*
%TO.P,J101,B9,VBUS*%
%TO.N,+5V*%
X152600000Y-55600000D03*
%TO.P,J101,B12,GND*%
%TO.N,GND*%
X152600000Y-54800000D03*
D15*
%TO.P,J101,S1,SHIELD*%
X152000000Y-53680000D03*
D16*
X147800000Y-53680000D03*
D15*
X152000000Y-62320000D03*
D16*
X147800000Y-62320000D03*
%TD*%
D17*
%TO.P,C102,1*%
%TO.N,Net-(U103-BYP)*%
X162075001Y-60000000D03*
%TO.P,C102,2*%
%TO.N,+3V3*%
X160525001Y-60000000D03*
%TD*%
D11*
%TO.P,R102,1*%
%TO.N,GND*%
X177500000Y-70575000D03*
%TO.P,R102,2*%
%TO.N,Net-(U104-IO0)*%
X177500000Y-68925000D03*
%TD*%
D18*
%TO.P,R107,1*%
%TO.N,+5V*%
X173000000Y-45925000D03*
%TO.P,R107,2*%
%TO.N,/Vcc_scaled*%
X173000000Y-47575000D03*
%TD*%
D19*
%TO.P,C103,1*%
%TO.N,+3V3*%
X179500000Y-69000000D03*
%TO.P,C103,2*%
%TO.N,GND*%
X179500000Y-70550000D03*
%TD*%
D11*
%TO.P,R103,1*%
%TO.N,+3V3*%
X174250000Y-70575000D03*
%TO.P,R103,2*%
%TO.N,Net-(U104-IO2)*%
X174250000Y-68925000D03*
%TD*%
D20*
%TO.P,U103,1,OUT*%
%TO.N,+3V3*%
X160412501Y-57475000D03*
%TO.P,U103,2,SENSE*%
%TO.N,unconnected-(U103-SENSE-Pad2)*%
X160412501Y-56825000D03*
%TO.P,U103,3,BYP*%
%TO.N,Net-(U103-BYP)*%
X160412501Y-56175000D03*
%TO.P,U103,4,GND*%
%TO.N,GND*%
X160412501Y-55525000D03*
%TO.P,U103,5,~{SHDN}*%
%TO.N,+5V*%
X156187501Y-55525000D03*
%TO.P,U103,6,NC*%
%TO.N,unconnected-(U103-NC-Pad6)*%
X156187501Y-56175000D03*
%TO.P,U103,7,NC*%
%TO.N,unconnected-(U103-NC-Pad7)*%
X156187501Y-56825000D03*
%TO.P,U103,8,IN*%
%TO.N,+5V*%
X156187501Y-57475000D03*
%TD*%
D19*
%TO.P,C104,1*%
%TO.N,+3V3*%
X181500000Y-69000000D03*
%TO.P,C104,2*%
%TO.N,GND*%
X181500000Y-70550000D03*
%TD*%
D21*
%TO.P,R106,1*%
%TO.N,/LED_EN*%
X168325000Y-45200000D03*
%TO.P,R106,2*%
%TO.N,Net-(U102-G)*%
X166675000Y-45200000D03*
%TD*%
D22*
%TO.P,U104,1,3V3*%
%TO.N,+3V3*%
X177500000Y-49500000D03*
%TO.P,U104,2,EN*%
%TO.N,/~{RST}*%
X176000000Y-49500000D03*
%TO.P,U104,3,IO4*%
%TO.N,unconnected-(U104-IO4-Pad3)*%
X174500000Y-49500000D03*
%TO.P,U104,4,IO5_ADC*%
%TO.N,/Vcc_scaled*%
X173000000Y-49500000D03*
%TO.P,U104,5,IO6*%
%TO.N,unconnected-(U104-IO6-Pad5)*%
X171500000Y-49500000D03*
%TO.P,U104,6,IO7*%
%TO.N,/LED_EN*%
X170000000Y-49500000D03*
%TO.P,U104,7,IO8*%
%TO.N,unconnected-(U104-IO8-Pad7)*%
X168500000Y-49500000D03*
%TO.P,U104,8,IO9*%
%TO.N,unconnected-(U104-IO9-Pad8)*%
X167000000Y-49500000D03*
%TO.P,U104,9,GND*%
%TO.N,GND*%
X165500000Y-49500000D03*
%TO.P,U104,10,IO10*%
%TO.N,unconnected-(U104-IO10-Pad10)*%
X165500000Y-67000000D03*
%TO.P,U104,11,IO20/RXD*%
%TO.N,unconnected-(U104-IO20{slash}RXD-Pad11)*%
X167000000Y-67000000D03*
%TO.P,U104,12,IO21/TXD*%
%TO.N,unconnected-(U104-IO21{slash}TXD-Pad12)*%
X168500000Y-67000000D03*
%TO.P,U104,13,USB_D-*%
%TO.N,/USB_D+*%
X170000000Y-67000000D03*
%TO.P,U104,14,USB_D+*%
%TO.N,/USB_D-*%
X171500000Y-67000000D03*
%TO.P,U104,15,IO3*%
%TO.N,unconnected-(U104-IO3-Pad15)*%
X173000000Y-67000000D03*
%TO.P,U104,16,IO2*%
%TO.N,Net-(U104-IO2)*%
X174500000Y-67000000D03*
%TO.P,U104,17,IO1*%
%TO.N,unconnected-(U104-IO1-Pad17)*%
X176000000Y-67000000D03*
%TO.P,U104,18,IO0*%
%TO.N,Net-(U104-IO0)*%
X177500000Y-67000000D03*
D23*
%TO.P,U104,19,GND*%
%TO.N,GND*%
X171850000Y-58110000D03*
X170750000Y-58110000D03*
X172400000Y-58660000D03*
X171300000Y-58660000D03*
X170200000Y-58660000D03*
X171850000Y-59210000D03*
D24*
X171300000Y-59210000D03*
D23*
X170750000Y-59210000D03*
X172400000Y-59760000D03*
X171300000Y-59760000D03*
X170200000Y-59760000D03*
X171850000Y-60310000D03*
X170750000Y-60310000D03*
%TD*%
D25*
%TO.P,U102,1,D*%
%TO.N,Net-(D101-K)*%
X187000000Y-62675000D03*
D26*
%TO.P,U102,3,G*%
%TO.N,Net-(U102-G)*%
X186075000Y-63650000D03*
D27*
%TO.P,U102,4,S*%
%TO.N,GND*%
X187040000Y-63650000D03*
D26*
X187925000Y-63650000D03*
%TD*%
D12*
%TO.P,R101,1*%
%TO.N,Net-(J101-CC1)*%
X155975001Y-60000000D03*
%TO.P,R101,2*%
%TO.N,GND*%
X157625001Y-60000000D03*
%TD*%
D28*
%TO.P,D101,1,K*%
%TO.N,Net-(D101-K)*%
X187000000Y-60250000D03*
%TO.P,D101,2,A*%
%TO.N,+5V*%
X187000000Y-55750000D03*
%TD*%
D29*
%TO.N,GND*%
X161800001Y-55500000D03*
X176000000Y-45100000D03*
X188500000Y-63750000D03*
X187000000Y-64250000D03*
X171299265Y-45049265D03*
X181500000Y-71500000D03*
X177000000Y-71500000D03*
X165500000Y-48250000D03*
X180252936Y-69753154D03*
X158500000Y-60000000D03*
%TO.N,/USB_D+*%
X153653012Y-57850000D03*
X170000000Y-71750000D03*
%TO.N,+5V*%
X187000000Y-54000000D03*
X153500000Y-55600000D03*
X161750000Y-44750000D03*
%TD*%
D30*
%TO.N,GND*%
X181500000Y-70550000D02*
X181500000Y-71500000D01*
X161775001Y-55525000D02*
X161800001Y-55500000D01*
X187925000Y-63650000D02*
X188400000Y-63650000D01*
X179500000Y-70550000D02*
X179500000Y-70506090D01*
X157625001Y-60000000D02*
X158500000Y-60000000D01*
D31*
X165500000Y-49500000D02*
X165500000Y-48250000D01*
D30*
X176000000Y-45100000D02*
X176000000Y-45975000D01*
X171250000Y-45098530D02*
X171299265Y-45049265D01*
X160412501Y-55525000D02*
X161775001Y-55525000D01*
X187040000Y-64210000D02*
X187000000Y-64250000D01*
X152600000Y-54280000D02*
X152000000Y-53680000D01*
X179500000Y-70506090D02*
X180252936Y-69753154D01*
X171250000Y-45925000D02*
X171250000Y-45098530D01*
X177500000Y-70575000D02*
X177500000Y-71000000D01*
X152600000Y-61200000D02*
X152600000Y-61720000D01*
X188400000Y-63650000D02*
X188500000Y-63750000D01*
D31*
X187040000Y-63650000D02*
X187040000Y-64210000D01*
D30*
X152600000Y-61720000D02*
X152000000Y-62320000D01*
X177500000Y-71000000D02*
X177000000Y-71500000D01*
X152600000Y-54800000D02*
X152600000Y-54280000D01*
%TO.N,/~{RST}*%
X176000000Y-49500000D02*
X176000000Y-47525000D01*
%TO.N,Net-(U103-BYP)*%
X161300001Y-60775000D02*
X160025000Y-60775000D01*
X159300001Y-56556544D02*
X159681545Y-56175000D01*
X159681545Y-56175000D02*
X160412501Y-56175000D01*
X162075001Y-60000000D02*
X161300001Y-60775000D01*
X159500000Y-59285784D02*
X159300001Y-59085785D01*
X160025000Y-60775000D02*
X159500000Y-60250000D01*
X159500000Y-60250000D02*
X159500000Y-59285784D01*
X159300001Y-59085785D02*
X159300001Y-56556544D01*
%TO.N,+3V3*%
X160525001Y-59500000D02*
X160525001Y-57587500D01*
X160525001Y-57587500D02*
X160412501Y-57475000D01*
%TO.N,/USB_D+*%
X153450000Y-58750000D02*
X152580000Y-58750000D01*
X152580000Y-57750000D02*
X153450000Y-57750000D01*
X153500000Y-58700000D02*
X153450000Y-58750000D01*
X153653012Y-57850000D02*
X153520000Y-57983012D01*
X153520000Y-57983012D02*
X153520000Y-58700000D01*
X153520000Y-58700000D02*
X153470000Y-58750000D01*
X153470000Y-58750000D02*
X152600000Y-58750000D01*
X170000000Y-71750000D02*
X170000000Y-67000000D01*
X153500000Y-57800000D02*
X153500000Y-58700000D01*
X153450000Y-57750000D02*
X153500000Y-57800000D01*
%TO.N,+5V*%
X157000000Y-57475000D02*
X157300001Y-57174999D01*
X171550000Y-44475000D02*
X163650000Y-44475000D01*
X150500000Y-59500000D02*
X151215000Y-60215000D01*
X157300001Y-57174999D02*
X157300001Y-55825001D01*
X156187501Y-57475000D02*
X157000000Y-57475000D01*
X152415000Y-60215000D02*
X152600000Y-60400000D01*
X152600000Y-55600000D02*
X153500000Y-55600000D01*
X173000000Y-45925000D02*
X171550000Y-44475000D01*
X150500000Y-56980000D02*
X150500000Y-59500000D01*
X152415000Y-55785000D02*
X151695000Y-55785000D01*
X156112501Y-55600000D02*
X156187501Y-55525000D01*
D32*
X187000000Y-54000000D02*
X187000000Y-55750000D01*
D30*
X163650000Y-44475000D02*
X162925000Y-45200000D01*
X151215000Y-60215000D02*
X152415000Y-60215000D01*
X152600000Y-55600000D02*
X152415000Y-55785000D01*
X157300001Y-55825001D02*
X157000000Y-55525000D01*
X153500000Y-55600000D02*
X156112501Y-55600000D01*
X151695000Y-55785000D02*
X150500000Y-56980000D01*
X157000000Y-55525000D02*
X156187501Y-55525000D01*
X162925000Y-45200000D02*
X162200000Y-45200000D01*
X162200000Y-45200000D02*
X161750000Y-44750000D01*
%TO.N,/USB_D-*%
X159100000Y-61100000D02*
X163500000Y-65500000D01*
X155750000Y-58750000D02*
X158398530Y-58750000D01*
X151710000Y-58250000D02*
X152580000Y-58250000D01*
X152600000Y-57250000D02*
X154250000Y-57250000D01*
X163500000Y-65500000D02*
X171000000Y-65500000D01*
X171000000Y-65500000D02*
X171500000Y-66000000D01*
X151710000Y-57250000D02*
X151660000Y-57300000D01*
X151660000Y-58200000D02*
X151710000Y-58250000D01*
X159100000Y-59451470D02*
X159100000Y-61100000D01*
X171500000Y-66000000D02*
X171500000Y-67000000D01*
X154250000Y-57250000D02*
X155750000Y-58750000D01*
X158398530Y-58750000D02*
X159100000Y-59451470D01*
X152580000Y-57250000D02*
X151710000Y-57250000D01*
X151660000Y-57300000D02*
X151660000Y-58200000D01*
%TO.N,Net-(J101-CC1)*%
X151644314Y-56750000D02*
X151260000Y-57134314D01*
X151710000Y-59750000D02*
X152580000Y-59750000D01*
X151260000Y-59300000D02*
X151710000Y-59750000D01*
X155725001Y-59750000D02*
X152600000Y-59750000D01*
X151260000Y-57134314D02*
X151260000Y-59300000D01*
X152580000Y-56750000D02*
X151644314Y-56750000D01*
X155975001Y-60000000D02*
X155725001Y-59750000D01*
%TO.N,Net-(U102-G)*%
X166675000Y-45200000D02*
X167700000Y-46225000D01*
X164575000Y-45200000D02*
X166225000Y-45200000D01*
X180250000Y-63650000D02*
X186075000Y-63650000D01*
X167700000Y-51100000D02*
X180250000Y-63650000D01*
X167700000Y-46225000D02*
X167700000Y-51100000D01*
%TO.N,/LED_EN*%
X170000000Y-49500000D02*
X170000000Y-47825000D01*
X170000000Y-47825000D02*
X168325000Y-46150000D01*
X168325000Y-46150000D02*
X168325000Y-45200000D01*
%TO.N,/Vcc_scaled*%
X171250000Y-47575000D02*
X173000000Y-47575000D01*
D32*
%TO.N,Net-(D101-K)*%
X187000000Y-60250000D02*
X187000000Y-62675000D01*
D30*
%TO.N,Net-(U104-IO0)*%
X177500000Y-68925000D02*
X177500000Y-67000000D01*
%TO.N,Net-(U104-IO2)*%
X174250000Y-68925000D02*
X174250000Y-67250000D01*
X174250000Y-67250000D02*
X174500000Y-67000000D01*
%TD*%
%TA.AperFunction,Conductor*%
%TO.N,+3V3*%
G36*
X191458691Y-43519407D02*
G01*
X191494655Y-43568907D01*
X191499500Y-43599500D01*
X191499500Y-72400500D01*
X191480593Y-72458691D01*
X191431093Y-72494655D01*
X191400500Y-72499500D01*
X142599500Y-72499500D01*
X142541309Y-72480593D01*
X142505345Y-72431093D01*
X142500500Y-72400500D01*
X142500500Y-66230253D01*
X164849500Y-66230253D01*
X164849500Y-67769746D01*
X164849501Y-67769758D01*
X164861132Y-67828227D01*
X164861133Y-67828231D01*
X164905448Y-67894552D01*
X164971769Y-67938867D01*
X165016231Y-67947711D01*
X165030241Y-67950498D01*
X165030246Y-67950498D01*
X165030252Y-67950500D01*
X165030253Y-67950500D01*
X165969747Y-67950500D01*
X165969748Y-67950500D01*
X166028231Y-67938867D01*
X166094552Y-67894552D01*
X166138867Y-67828231D01*
X166150500Y-67769748D01*
X166150500Y-66230253D01*
X166349500Y-66230253D01*
X166349500Y-67769746D01*
X166349501Y-67769758D01*
X166361132Y-67828227D01*
X166361133Y-67828231D01*
X166405448Y-67894552D01*
X166471769Y-67938867D01*
X166516231Y-67947711D01*
X166530241Y-67950498D01*
X166530246Y-67950498D01*
X166530252Y-67950500D01*
X166530253Y-67950500D01*
X167469747Y-67950500D01*
X167469748Y-67950500D01*
X167528231Y-67938867D01*
X167594552Y-67894552D01*
X167638867Y-67828231D01*
X167650500Y-67769748D01*
X167650500Y-66230253D01*
X167849500Y-66230253D01*
X167849500Y-67769746D01*
X167849501Y-67769758D01*
X167861132Y-67828227D01*
X167861133Y-67828231D01*
X167905448Y-67894552D01*
X167971769Y-67938867D01*
X168016231Y-67947711D01*
X168030241Y-67950498D01*
X168030246Y-67950498D01*
X168030252Y-67950500D01*
X168030253Y-67950500D01*
X168969747Y-67950500D01*
X168969748Y-67950500D01*
X169028231Y-67938867D01*
X169094552Y-67894552D01*
X169138867Y-67828231D01*
X169150500Y-67769748D01*
X169150500Y-66230253D01*
X169349500Y-66230253D01*
X169349500Y-67769746D01*
X169349501Y-67769758D01*
X169361132Y-67828227D01*
X169361133Y-67828231D01*
X169405448Y-67894552D01*
X169471769Y-67938867D01*
X169516231Y-67947711D01*
X169530241Y-67950498D01*
X169530246Y-67950498D01*
X169530252Y-67950500D01*
X169600500Y-67950500D01*
X169658691Y-67969407D01*
X169694655Y-68018907D01*
X169699500Y-68049500D01*
X169699500Y-71296105D01*
X169680593Y-71354296D01*
X169673258Y-71362289D01*
X169673509Y-71362506D01*
X169668872Y-71367856D01*
X169668872Y-71367857D01*
X169615489Y-71429465D01*
X169574622Y-71476628D01*
X169514834Y-71607543D01*
X169494353Y-71749997D01*
X169494353Y-71750002D01*
X169514834Y-71892456D01*
X169564177Y-72000499D01*
X169574623Y-72023373D01*
X169668872Y-72132143D01*
X169668873Y-72132144D01*
X169789942Y-72209950D01*
X169789947Y-72209953D01*
X169896403Y-72241211D01*
X169928035Y-72250499D01*
X169928036Y-72250499D01*
X169928039Y-72250500D01*
X169928041Y-72250500D01*
X170071959Y-72250500D01*
X170071961Y-72250500D01*
X170210053Y-72209953D01*
X170331128Y-72132143D01*
X170425377Y-72023373D01*
X170485165Y-71892457D01*
X170505647Y-71750000D01*
X170485165Y-71607543D01*
X170436050Y-71499997D01*
X176494353Y-71499997D01*
X176494353Y-71500002D01*
X176514834Y-71642456D01*
X176563947Y-71749997D01*
X176574623Y-71773373D01*
X176668872Y-71882143D01*
X176668873Y-71882144D01*
X176789942Y-71959950D01*
X176789947Y-71959953D01*
X176896403Y-71991211D01*
X176928035Y-72000499D01*
X176928036Y-72000499D01*
X176928039Y-72000500D01*
X176928041Y-72000500D01*
X177071959Y-72000500D01*
X177071961Y-72000500D01*
X177210053Y-71959953D01*
X177331128Y-71882143D01*
X177425377Y-71773373D01*
X177485165Y-71642457D01*
X177505647Y-71500000D01*
X177502558Y-71478516D01*
X177512991Y-71418227D01*
X177530543Y-71394426D01*
X177720476Y-71204495D01*
X177774993Y-71176718D01*
X177790479Y-71175499D01*
X177806521Y-71175499D01*
X177806522Y-71175498D01*
X177853411Y-71168072D01*
X177900299Y-71160647D01*
X177900299Y-71160646D01*
X177900304Y-71160646D01*
X178013342Y-71103050D01*
X178103050Y-71013342D01*
X178160646Y-70900304D01*
X178175500Y-70806519D01*
X178175499Y-70343482D01*
X178167736Y-70294463D01*
X178160647Y-70249700D01*
X178160646Y-70249698D01*
X178160646Y-70249696D01*
X178103050Y-70136658D01*
X178013342Y-70046950D01*
X177900304Y-69989354D01*
X177900305Y-69989354D01*
X177806522Y-69974500D01*
X177193479Y-69974500D01*
X177193476Y-69974501D01*
X177099700Y-69989352D01*
X177099695Y-69989354D01*
X176986659Y-70046949D01*
X176896949Y-70136659D01*
X176839354Y-70249695D01*
X176824500Y-70343477D01*
X176824500Y-70806520D01*
X176824501Y-70806523D01*
X176839352Y-70900300D01*
X176840878Y-70903295D01*
X176841402Y-70906609D01*
X176841760Y-70907709D01*
X176841585Y-70907765D01*
X176850446Y-70963728D01*
X176822666Y-71018243D01*
X176793803Y-71038284D01*
X176789953Y-71040042D01*
X176668873Y-71117855D01*
X176574622Y-71226628D01*
X176514834Y-71357543D01*
X176494353Y-71499997D01*
X170436050Y-71499997D01*
X170425377Y-71476627D01*
X170331128Y-71367857D01*
X170331127Y-71367856D01*
X170326491Y-71362506D01*
X170328524Y-71360743D01*
X170303067Y-71318505D01*
X170300500Y-71296105D01*
X170300500Y-70825001D01*
X173275001Y-70825001D01*
X173275001Y-70831582D01*
X173281408Y-70902103D01*
X173281410Y-70902109D01*
X173331979Y-71064392D01*
X173331982Y-71064400D01*
X173419924Y-71209872D01*
X173540127Y-71330075D01*
X173685599Y-71418017D01*
X173685607Y-71418020D01*
X173847889Y-71468589D01*
X173847895Y-71468591D01*
X173918424Y-71474999D01*
X173999999Y-71474998D01*
X174000000Y-71474998D01*
X174000000Y-70825001D01*
X174500000Y-70825001D01*
X174500000Y-71474998D01*
X174500001Y-71474999D01*
X174581566Y-71474999D01*
X174581582Y-71474998D01*
X174652103Y-71468591D01*
X174652109Y-71468589D01*
X174814392Y-71418020D01*
X174814400Y-71418017D01*
X174959872Y-71330075D01*
X175080075Y-71209872D01*
X175168017Y-71064400D01*
X175168020Y-71064392D01*
X175218589Y-70902110D01*
X175218591Y-70902104D01*
X175224999Y-70831581D01*
X175225000Y-70831568D01*
X175225000Y-70825001D01*
X175224999Y-70825000D01*
X174500001Y-70825000D01*
X174500000Y-70825001D01*
X174000000Y-70825001D01*
X173999999Y-70825000D01*
X173275002Y-70825000D01*
X173275001Y-70825001D01*
X170300500Y-70825001D01*
X170300500Y-70318418D01*
X173275000Y-70318418D01*
X173275000Y-70324999D01*
X173275001Y-70325000D01*
X175224998Y-70325000D01*
X175224999Y-70324999D01*
X175224999Y-70318433D01*
X175224998Y-70318417D01*
X175218591Y-70247896D01*
X175218589Y-70247890D01*
X175168020Y-70085607D01*
X175168017Y-70085599D01*
X175080075Y-69940127D01*
X174959872Y-69819924D01*
X174814400Y-69731982D01*
X174814392Y-69731979D01*
X174675170Y-69688596D01*
X174625239Y-69653233D01*
X174605630Y-69595275D01*
X174623833Y-69536860D01*
X174659676Y-69505870D01*
X174763342Y-69453050D01*
X174853050Y-69363342D01*
X174910646Y-69250304D01*
X174925500Y-69156519D01*
X174925499Y-68693482D01*
X174925498Y-68693477D01*
X176824500Y-68693477D01*
X176824500Y-69156520D01*
X176824501Y-69156523D01*
X176839352Y-69250299D01*
X176839354Y-69250304D01*
X176896950Y-69363342D01*
X176986658Y-69453050D01*
X177099696Y-69510646D01*
X177193481Y-69525500D01*
X177806518Y-69525499D01*
X177806520Y-69525499D01*
X177806521Y-69525498D01*
X177853411Y-69518072D01*
X177900299Y-69510647D01*
X177900299Y-69510646D01*
X177900304Y-69510646D01*
X178013342Y-69453050D01*
X178103050Y-69363342D01*
X178160646Y-69250304D01*
X178160694Y-69250001D01*
X178525001Y-69250001D01*
X178525001Y-69273322D01*
X178535142Y-69372597D01*
X178535145Y-69372609D01*
X178588454Y-69533487D01*
X178677425Y-69677729D01*
X178797269Y-69797573D01*
X178924751Y-69876206D01*
X178964352Y-69922847D01*
X178968975Y-69983857D01*
X178942782Y-70030469D01*
X178901473Y-70071778D01*
X178901470Y-70071782D01*
X178840283Y-70191867D01*
X178840281Y-70191874D01*
X178824500Y-70291510D01*
X178824500Y-70808489D01*
X178828158Y-70831582D01*
X178839041Y-70900300D01*
X178840281Y-70908125D01*
X178840283Y-70908132D01*
X178893890Y-71013340D01*
X178901472Y-71028220D01*
X178996780Y-71123528D01*
X178996782Y-71123529D01*
X179116867Y-71184716D01*
X179116869Y-71184716D01*
X179116874Y-71184719D01*
X179192541Y-71196703D01*
X179216510Y-71200500D01*
X179216512Y-71200500D01*
X179783490Y-71200500D01*
X179804885Y-71197111D01*
X179883126Y-71184719D01*
X180003220Y-71123528D01*
X180098528Y-71028220D01*
X180159719Y-70908126D01*
X180175500Y-70808488D01*
X180175500Y-70352654D01*
X180194407Y-70294463D01*
X180243907Y-70258499D01*
X180274500Y-70253654D01*
X180324895Y-70253654D01*
X180324897Y-70253654D01*
X180462989Y-70213107D01*
X180584064Y-70135297D01*
X180678313Y-70026527D01*
X180738101Y-69895611D01*
X180738100Y-69895611D01*
X180739454Y-69892649D01*
X180780826Y-69847572D01*
X180840793Y-69835421D01*
X180881480Y-69849515D01*
X180924751Y-69876205D01*
X180964352Y-69922847D01*
X180968975Y-69983857D01*
X180942782Y-70030469D01*
X180901473Y-70071778D01*
X180901470Y-70071782D01*
X180840283Y-70191867D01*
X180840281Y-70191874D01*
X180824500Y-70291510D01*
X180824500Y-70808489D01*
X180828158Y-70831582D01*
X180839041Y-70900300D01*
X180840281Y-70908125D01*
X180840283Y-70908132D01*
X180893890Y-71013340D01*
X180901472Y-71028220D01*
X180996780Y-71123528D01*
X181013616Y-71132106D01*
X181056880Y-71175370D01*
X181066451Y-71235802D01*
X181058723Y-71261442D01*
X181014834Y-71357543D01*
X180994353Y-71499997D01*
X180994353Y-71500002D01*
X181014834Y-71642456D01*
X181063947Y-71749997D01*
X181074623Y-71773373D01*
X181168872Y-71882143D01*
X181168873Y-71882144D01*
X181289942Y-71959950D01*
X181289947Y-71959953D01*
X181396403Y-71991211D01*
X181428035Y-72000499D01*
X181428036Y-72000499D01*
X181428039Y-72000500D01*
X181428041Y-72000500D01*
X181571959Y-72000500D01*
X181571961Y-72000500D01*
X181710053Y-71959953D01*
X181831128Y-71882143D01*
X181925377Y-71773373D01*
X181985165Y-71642457D01*
X182005647Y-71500000D01*
X182002052Y-71474999D01*
X181986648Y-71367857D01*
X181985165Y-71357543D01*
X181941275Y-71261440D01*
X181934301Y-71200656D01*
X181964387Y-71147379D01*
X181986380Y-71132108D01*
X182003220Y-71123528D01*
X182098528Y-71028220D01*
X182159719Y-70908126D01*
X182175500Y-70808488D01*
X182175500Y-70291512D01*
X182159719Y-70191874D01*
X182159716Y-70191869D01*
X182159716Y-70191867D01*
X182098529Y-70071782D01*
X182098528Y-70071780D01*
X182057215Y-70030467D01*
X182029440Y-69975953D01*
X182039011Y-69915521D01*
X182075248Y-69876205D01*
X182202732Y-69797571D01*
X182322574Y-69677729D01*
X182411545Y-69533487D01*
X182464856Y-69372603D01*
X182475000Y-69273323D01*
X182475000Y-69250001D01*
X182474999Y-69250000D01*
X178525002Y-69250000D01*
X178525001Y-69250001D01*
X178160694Y-69250001D01*
X178175500Y-69156519D01*
X178175499Y-68726676D01*
X178525000Y-68726676D01*
X178525000Y-68749999D01*
X178525001Y-68750000D01*
X179249999Y-68750000D01*
X179250000Y-68749999D01*
X179250000Y-68050001D01*
X179750000Y-68050001D01*
X179750000Y-68749999D01*
X179750001Y-68750000D01*
X181249999Y-68750000D01*
X181250000Y-68749999D01*
X181250000Y-68050001D01*
X181750000Y-68050001D01*
X181750000Y-68749999D01*
X181750001Y-68750000D01*
X182474998Y-68750000D01*
X182474999Y-68749999D01*
X182474999Y-68726677D01*
X182464857Y-68627402D01*
X182464854Y-68627390D01*
X182411545Y-68466512D01*
X182322574Y-68322270D01*
X182202729Y-68202425D01*
X182058487Y-68113454D01*
X181897603Y-68060143D01*
X181798323Y-68050000D01*
X181750001Y-68050000D01*
X181750000Y-68050001D01*
X181250000Y-68050001D01*
X181250000Y-68049999D01*
X181201679Y-68050000D01*
X181201676Y-68050001D01*
X181102402Y-68060142D01*
X181102390Y-68060145D01*
X180941512Y-68113454D01*
X180797270Y-68202425D01*
X180677425Y-68322270D01*
X180585425Y-68471424D01*
X180583634Y-68470319D01*
X180547991Y-68508539D01*
X180487930Y-68520210D01*
X180432478Y-68494349D01*
X180415436Y-68470892D01*
X180414575Y-68471424D01*
X180322574Y-68322270D01*
X180202729Y-68202425D01*
X180058487Y-68113454D01*
X179897603Y-68060143D01*
X179798323Y-68050000D01*
X179750001Y-68050000D01*
X179750000Y-68050001D01*
X179250000Y-68050001D01*
X179250000Y-68049999D01*
X179201679Y-68050000D01*
X179201676Y-68050001D01*
X179102402Y-68060142D01*
X179102390Y-68060145D01*
X178941512Y-68113454D01*
X178797270Y-68202425D01*
X178677425Y-68322270D01*
X178588454Y-68466512D01*
X178535143Y-68627396D01*
X178525000Y-68726676D01*
X178175499Y-68726676D01*
X178175499Y-68693482D01*
X178160646Y-68599696D01*
X178103050Y-68486658D01*
X178013342Y-68396950D01*
X177900304Y-68339354D01*
X177900306Y-68339354D01*
X177884010Y-68336773D01*
X177829494Y-68308993D01*
X177801718Y-68254476D01*
X177800500Y-68238992D01*
X177800500Y-68049500D01*
X177819407Y-67991309D01*
X177868907Y-67955345D01*
X177899500Y-67950500D01*
X177969747Y-67950500D01*
X177969748Y-67950500D01*
X178028231Y-67938867D01*
X178094552Y-67894552D01*
X178138867Y-67828231D01*
X178150500Y-67769748D01*
X178150500Y-66230252D01*
X178138867Y-66171769D01*
X178094552Y-66105448D01*
X178094548Y-66105445D01*
X178028233Y-66061134D01*
X178028231Y-66061133D01*
X178028228Y-66061132D01*
X178028227Y-66061132D01*
X177969758Y-66049501D01*
X177969748Y-66049500D01*
X177030252Y-66049500D01*
X177030251Y-66049500D01*
X177030241Y-66049501D01*
X176971772Y-66061132D01*
X176971766Y-66061134D01*
X176905451Y-66105445D01*
X176905445Y-66105451D01*
X176861134Y-66171766D01*
X176861132Y-66171772D01*
X176849501Y-66230241D01*
X176849500Y-66230253D01*
X176849500Y-67769746D01*
X176849501Y-67769758D01*
X176861132Y-67828227D01*
X176861133Y-67828231D01*
X176905448Y-67894552D01*
X176971769Y-67938867D01*
X177016231Y-67947711D01*
X177030241Y-67950498D01*
X177030246Y-67950498D01*
X177030252Y-67950500D01*
X177100500Y-67950500D01*
X177158691Y-67969407D01*
X177194655Y-68018907D01*
X177199500Y-68049500D01*
X177199500Y-68238992D01*
X177180593Y-68297183D01*
X177131093Y-68333147D01*
X177115987Y-68336773D01*
X177099699Y-68339352D01*
X177099695Y-68339354D01*
X176986659Y-68396949D01*
X176896949Y-68486659D01*
X176839354Y-68599695D01*
X176824500Y-68693477D01*
X174925498Y-68693477D01*
X174910646Y-68599696D01*
X174853050Y-68486658D01*
X174763342Y-68396950D01*
X174650304Y-68339354D01*
X174650306Y-68339354D01*
X174634010Y-68336773D01*
X174579494Y-68308993D01*
X174551718Y-68254476D01*
X174550500Y-68238992D01*
X174550500Y-68049500D01*
X174569407Y-67991309D01*
X174618907Y-67955345D01*
X174649500Y-67950500D01*
X174969747Y-67950500D01*
X174969748Y-67950500D01*
X175028231Y-67938867D01*
X175094552Y-67894552D01*
X175138867Y-67828231D01*
X175150500Y-67769748D01*
X175150500Y-66230253D01*
X175349500Y-66230253D01*
X175349500Y-67769746D01*
X175349501Y-67769758D01*
X175361132Y-67828227D01*
X175361133Y-67828231D01*
X175405448Y-67894552D01*
X175471769Y-67938867D01*
X175516231Y-67947711D01*
X175530241Y-67950498D01*
X175530246Y-67950498D01*
X175530252Y-67950500D01*
X175530253Y-67950500D01*
X176469747Y-67950500D01*
X176469748Y-67950500D01*
X176528231Y-67938867D01*
X176594552Y-67894552D01*
X176638867Y-67828231D01*
X176650500Y-67769748D01*
X176650500Y-66230252D01*
X176638867Y-66171769D01*
X176594552Y-66105448D01*
X176594548Y-66105445D01*
X176528233Y-66061134D01*
X176528231Y-66061133D01*
X176528228Y-66061132D01*
X176528227Y-66061132D01*
X176469758Y-66049501D01*
X176469748Y-66049500D01*
X175530252Y-66049500D01*
X175530251Y-66049500D01*
X175530241Y-66049501D01*
X175471772Y-66061132D01*
X175471766Y-66061134D01*
X175405451Y-66105445D01*
X175405445Y-66105451D01*
X175361134Y-66171766D01*
X175361132Y-66171772D01*
X175349501Y-66230241D01*
X175349500Y-66230253D01*
X175150500Y-66230253D01*
X175150500Y-66230252D01*
X175138867Y-66171769D01*
X175094552Y-66105448D01*
X175094548Y-66105445D01*
X175028233Y-66061134D01*
X175028231Y-66061133D01*
X175028228Y-66061132D01*
X175028227Y-66061132D01*
X174969758Y-66049501D01*
X174969748Y-66049500D01*
X174030252Y-66049500D01*
X174030251Y-66049500D01*
X174030241Y-66049501D01*
X173971772Y-66061132D01*
X173971766Y-66061134D01*
X173905451Y-66105445D01*
X173905445Y-66105451D01*
X173861134Y-66171766D01*
X173861132Y-66171772D01*
X173849501Y-66230241D01*
X173849500Y-66230253D01*
X173849500Y-67769746D01*
X173849501Y-67769758D01*
X173861132Y-67828227D01*
X173861133Y-67828231D01*
X173905448Y-67894552D01*
X173905501Y-67894587D01*
X173905564Y-67894667D01*
X173912343Y-67901446D01*
X173911540Y-67902248D01*
X173943381Y-67942637D01*
X173949500Y-67976903D01*
X173949500Y-68238992D01*
X173930593Y-68297183D01*
X173881093Y-68333147D01*
X173865987Y-68336773D01*
X173849699Y-68339352D01*
X173849695Y-68339354D01*
X173736659Y-68396949D01*
X173646949Y-68486659D01*
X173589354Y-68599695D01*
X173574500Y-68693477D01*
X173574500Y-69156520D01*
X173574501Y-69156523D01*
X173589352Y-69250299D01*
X173589354Y-69250304D01*
X173646950Y-69363342D01*
X173736658Y-69453050D01*
X173789120Y-69479781D01*
X173840322Y-69505870D01*
X173883586Y-69549135D01*
X173893157Y-69609567D01*
X173865379Y-69664083D01*
X173824829Y-69688596D01*
X173685607Y-69731979D01*
X173685599Y-69731982D01*
X173540127Y-69819924D01*
X173419924Y-69940127D01*
X173331982Y-70085599D01*
X173331979Y-70085607D01*
X173281410Y-70247889D01*
X173281408Y-70247895D01*
X173275000Y-70318418D01*
X170300500Y-70318418D01*
X170300500Y-68049500D01*
X170319407Y-67991309D01*
X170368907Y-67955345D01*
X170399500Y-67950500D01*
X170469747Y-67950500D01*
X170469748Y-67950500D01*
X170528231Y-67938867D01*
X170594552Y-67894552D01*
X170638867Y-67828231D01*
X170650500Y-67769748D01*
X170650500Y-66230252D01*
X170638867Y-66171769D01*
X170594552Y-66105448D01*
X170594548Y-66105445D01*
X170528233Y-66061134D01*
X170528231Y-66061133D01*
X170528228Y-66061132D01*
X170528227Y-66061132D01*
X170469758Y-66049501D01*
X170469748Y-66049500D01*
X169530252Y-66049500D01*
X169530251Y-66049500D01*
X169530241Y-66049501D01*
X169471772Y-66061132D01*
X169471766Y-66061134D01*
X169405451Y-66105445D01*
X169405445Y-66105451D01*
X169361134Y-66171766D01*
X169361132Y-66171772D01*
X169349501Y-66230241D01*
X169349500Y-66230253D01*
X169150500Y-66230253D01*
X169150500Y-66230252D01*
X169138867Y-66171769D01*
X169094552Y-66105448D01*
X169094548Y-66105445D01*
X169028233Y-66061134D01*
X169028231Y-66061133D01*
X169028228Y-66061132D01*
X169028227Y-66061132D01*
X168969758Y-66049501D01*
X168969748Y-66049500D01*
X168030252Y-66049500D01*
X168030251Y-66049500D01*
X168030241Y-66049501D01*
X167971772Y-66061132D01*
X167971766Y-66061134D01*
X167905451Y-66105445D01*
X167905445Y-66105451D01*
X167861134Y-66171766D01*
X167861132Y-66171772D01*
X167849501Y-66230241D01*
X167849500Y-66230253D01*
X167650500Y-66230253D01*
X167650500Y-66230252D01*
X167638867Y-66171769D01*
X167594552Y-66105448D01*
X167594548Y-66105445D01*
X167528233Y-66061134D01*
X167528231Y-66061133D01*
X167528228Y-66061132D01*
X167528227Y-66061132D01*
X167469758Y-66049501D01*
X167469748Y-66049500D01*
X166530252Y-66049500D01*
X166530251Y-66049500D01*
X166530241Y-66049501D01*
X166471772Y-66061132D01*
X166471766Y-66061134D01*
X166405451Y-66105445D01*
X166405445Y-66105451D01*
X166361134Y-66171766D01*
X166361132Y-66171772D01*
X166349501Y-66230241D01*
X166349500Y-66230253D01*
X166150500Y-66230253D01*
X166150500Y-66230252D01*
X166138867Y-66171769D01*
X166094552Y-66105448D01*
X166094548Y-66105445D01*
X166028233Y-66061134D01*
X166028231Y-66061133D01*
X166028228Y-66061132D01*
X166028227Y-66061132D01*
X165969758Y-66049501D01*
X165969748Y-66049500D01*
X165030252Y-66049500D01*
X165030251Y-66049500D01*
X165030241Y-66049501D01*
X164971772Y-66061132D01*
X164971766Y-66061134D01*
X164905451Y-66105445D01*
X164905445Y-66105451D01*
X164861134Y-66171766D01*
X164861132Y-66171772D01*
X164849501Y-66230241D01*
X164849500Y-66230253D01*
X142500500Y-66230253D01*
X142500500Y-62251004D01*
X146699500Y-62251004D01*
X146699500Y-62388995D01*
X146726420Y-62524327D01*
X146726420Y-62524329D01*
X146779222Y-62651806D01*
X146779228Y-62651817D01*
X146855885Y-62766541D01*
X146953458Y-62864114D01*
X147068182Y-62940771D01*
X147068193Y-62940777D01*
X147115283Y-62960282D01*
X147195672Y-62993580D01*
X147331007Y-63020500D01*
X147331008Y-63020500D01*
X148268992Y-63020500D01*
X148268993Y-63020500D01*
X148404328Y-62993580D01*
X148531811Y-62940775D01*
X148646542Y-62864114D01*
X148744114Y-62766542D01*
X148820775Y-62651811D01*
X148873580Y-62524328D01*
X148900500Y-62388993D01*
X148900500Y-62251007D01*
X148873580Y-62115672D01*
X148831819Y-62014851D01*
X148820777Y-61988193D01*
X148820771Y-61988182D01*
X148744114Y-61873458D01*
X148646541Y-61775885D01*
X148531817Y-61699228D01*
X148531806Y-61699222D01*
X148404328Y-61646420D01*
X148268995Y-61619500D01*
X148268993Y-61619500D01*
X147331007Y-61619500D01*
X147331004Y-61619500D01*
X147195672Y-61646420D01*
X147195670Y-61646420D01*
X147068193Y-61699222D01*
X147068182Y-61699228D01*
X146953458Y-61775885D01*
X146855885Y-61873458D01*
X146779228Y-61988182D01*
X146779222Y-61988193D01*
X146726420Y-62115670D01*
X146726420Y-62115672D01*
X146699500Y-62251004D01*
X142500500Y-62251004D01*
X142500500Y-56940435D01*
X150199500Y-56940435D01*
X150199500Y-59539564D01*
X150219977Y-59615985D01*
X150219981Y-59615993D01*
X150236802Y-59645130D01*
X150236803Y-59645130D01*
X150236804Y-59645131D01*
X150259540Y-59684511D01*
X151030489Y-60455460D01*
X151058251Y-60471489D01*
X151099192Y-60516958D01*
X151105588Y-60577808D01*
X151094488Y-60606724D01*
X151036906Y-60706461D01*
X151036905Y-60706463D01*
X151036905Y-60706464D01*
X151004500Y-60827399D01*
X151004500Y-60952601D01*
X151036905Y-61073536D01*
X151099505Y-61181964D01*
X151188036Y-61270495D01*
X151296464Y-61333095D01*
X151417399Y-61365500D01*
X151417401Y-61365500D01*
X151542602Y-61365500D01*
X151542602Y-61365499D01*
X151654877Y-61335415D01*
X151715977Y-61338616D01*
X151763528Y-61377121D01*
X151779500Y-61431041D01*
X151779500Y-61520500D01*
X151760593Y-61578691D01*
X151711093Y-61614655D01*
X151680500Y-61619500D01*
X151381004Y-61619500D01*
X151245672Y-61646420D01*
X151245670Y-61646420D01*
X151118193Y-61699222D01*
X151118182Y-61699228D01*
X151003458Y-61775885D01*
X150905885Y-61873458D01*
X150829228Y-61988182D01*
X150829222Y-61988193D01*
X150776420Y-62115670D01*
X150776420Y-62115672D01*
X150749500Y-62251004D01*
X150749500Y-62388995D01*
X150776420Y-62524327D01*
X150776420Y-62524329D01*
X150829222Y-62651806D01*
X150829228Y-62651817D01*
X150905885Y-62766541D01*
X151003458Y-62864114D01*
X151118182Y-62940771D01*
X151118193Y-62940777D01*
X151165283Y-62960282D01*
X151245672Y-62993580D01*
X151381007Y-63020500D01*
X151381008Y-63020500D01*
X152618992Y-63020500D01*
X152618993Y-63020500D01*
X152754328Y-62993580D01*
X152881811Y-62940775D01*
X152996542Y-62864114D01*
X153094114Y-62766542D01*
X153170775Y-62651811D01*
X153223580Y-62524328D01*
X153250500Y-62388993D01*
X153250500Y-62251007D01*
X153223580Y-62115672D01*
X153181819Y-62014851D01*
X153170777Y-61988193D01*
X153170771Y-61988182D01*
X153094114Y-61873458D01*
X153090160Y-61869504D01*
X153062383Y-61814987D01*
X153071954Y-61754555D01*
X153115219Y-61711290D01*
X153160164Y-61700500D01*
X153239747Y-61700500D01*
X153239748Y-61700500D01*
X153298231Y-61688867D01*
X153364552Y-61644552D01*
X153408867Y-61578231D01*
X153420500Y-61519748D01*
X153420500Y-60880252D01*
X153408867Y-60821769D01*
X153408379Y-60819315D01*
X153408379Y-60780685D01*
X153420498Y-60719758D01*
X153420500Y-60719746D01*
X153420500Y-60149500D01*
X153439407Y-60091309D01*
X153488907Y-60055345D01*
X153519500Y-60050500D01*
X155275502Y-60050500D01*
X155333693Y-60069407D01*
X155369657Y-60118907D01*
X155374502Y-60149500D01*
X155374502Y-60306523D01*
X155389353Y-60400299D01*
X155389355Y-60400304D01*
X155446951Y-60513342D01*
X155536659Y-60603050D01*
X155649697Y-60660646D01*
X155743482Y-60675500D01*
X156206519Y-60675499D01*
X156206521Y-60675499D01*
X156206522Y-60675498D01*
X156253412Y-60668072D01*
X156300300Y-60660647D01*
X156300300Y-60660646D01*
X156300305Y-60660646D01*
X156413343Y-60603050D01*
X156503051Y-60513342D01*
X156560647Y-60400304D01*
X156575501Y-60306519D01*
X156575500Y-59693482D01*
X156567843Y-59645131D01*
X156560648Y-59599700D01*
X156560647Y-59599698D01*
X156560647Y-59599696D01*
X156503051Y-59486658D01*
X156413343Y-59396950D01*
X156300305Y-59339354D01*
X156300306Y-59339354D01*
X156206523Y-59324500D01*
X155743480Y-59324500D01*
X155743477Y-59324501D01*
X155649701Y-59339352D01*
X155649696Y-59339354D01*
X155536659Y-59396950D01*
X155536656Y-59396952D01*
X155513103Y-59420505D01*
X155458586Y-59448281D01*
X155443101Y-59449500D01*
X153519500Y-59449500D01*
X153461309Y-59430593D01*
X153425345Y-59381093D01*
X153420500Y-59350500D01*
X153420500Y-59149045D01*
X153439407Y-59090854D01*
X153488907Y-59054890D01*
X153506587Y-59050891D01*
X153509553Y-59050500D01*
X153509562Y-59050500D01*
X153585989Y-59030021D01*
X153654511Y-58990460D01*
X153683657Y-58961314D01*
X153710461Y-58934511D01*
X153760459Y-58884512D01*
X153760463Y-58884506D01*
X153800020Y-58815992D01*
X153800020Y-58815990D01*
X153800022Y-58815988D01*
X153820500Y-58739562D01*
X153820500Y-58660438D01*
X153820500Y-58391365D01*
X153839407Y-58333174D01*
X153865975Y-58308082D01*
X153984140Y-58232143D01*
X154078389Y-58123373D01*
X154138177Y-57992457D01*
X154147221Y-57929554D01*
X154158659Y-57850002D01*
X154158659Y-57849998D01*
X154156261Y-57833322D01*
X154166694Y-57773033D01*
X154210571Y-57730390D01*
X154271133Y-57721682D01*
X154324257Y-57749228D01*
X155509540Y-58934511D01*
X155509539Y-58934511D01*
X155565489Y-58990460D01*
X155634007Y-59030019D01*
X155634011Y-59030021D01*
X155710435Y-59050499D01*
X155710437Y-59050500D01*
X155710438Y-59050500D01*
X155789562Y-59050500D01*
X158233051Y-59050500D01*
X158291242Y-59069407D01*
X158303055Y-59079496D01*
X158554055Y-59330496D01*
X158581832Y-59385013D01*
X158572261Y-59445445D01*
X158528996Y-59488710D01*
X158484051Y-59499500D01*
X158428035Y-59499500D01*
X158289936Y-59540050D01*
X158287223Y-59541289D01*
X158284753Y-59541571D01*
X158283153Y-59542042D01*
X158283071Y-59541764D01*
X158226436Y-59548255D01*
X158173163Y-59518161D01*
X158157900Y-59496174D01*
X158153053Y-59486661D01*
X158153052Y-59486660D01*
X158153051Y-59486658D01*
X158063343Y-59396950D01*
X157950305Y-59339354D01*
X157950306Y-59339354D01*
X157856523Y-59324500D01*
X157393480Y-59324500D01*
X157393477Y-59324501D01*
X157299701Y-59339352D01*
X157299696Y-59339354D01*
X157186660Y-59396949D01*
X157096950Y-59486659D01*
X157039355Y-59599695D01*
X157024501Y-59693477D01*
X157024501Y-60306520D01*
X157024502Y-60306523D01*
X157039353Y-60400299D01*
X157039355Y-60400304D01*
X157096951Y-60513342D01*
X157186659Y-60603050D01*
X157299697Y-60660646D01*
X157393482Y-60675500D01*
X157856519Y-60675499D01*
X157856521Y-60675499D01*
X157856522Y-60675498D01*
X157903412Y-60668072D01*
X157950300Y-60660647D01*
X157950300Y-60660646D01*
X157950305Y-60660646D01*
X158063343Y-60603050D01*
X158153051Y-60513342D01*
X158157899Y-60503826D01*
X158201159Y-60460561D01*
X158261591Y-60450986D01*
X158287240Y-60458716D01*
X158289939Y-60459948D01*
X158289947Y-60459953D01*
X158405204Y-60493795D01*
X158428035Y-60500499D01*
X158428036Y-60500499D01*
X158428039Y-60500500D01*
X158428041Y-60500500D01*
X158571959Y-60500500D01*
X158571961Y-60500500D01*
X158672610Y-60470947D01*
X158733769Y-60472694D01*
X158782222Y-60510057D01*
X158799500Y-60565937D01*
X158799500Y-61139564D01*
X158814062Y-61193907D01*
X158819979Y-61215989D01*
X158851448Y-61270495D01*
X158859540Y-61284511D01*
X163315489Y-65740460D01*
X163315491Y-65740461D01*
X163315493Y-65740463D01*
X163384008Y-65780020D01*
X163384006Y-65780020D01*
X163384010Y-65780021D01*
X163384012Y-65780022D01*
X163460438Y-65800500D01*
X170834521Y-65800500D01*
X170892712Y-65819407D01*
X170904525Y-65829496D01*
X170985015Y-65909986D01*
X171012792Y-65964503D01*
X171003221Y-66024935D01*
X170970014Y-66062304D01*
X170905452Y-66105444D01*
X170905445Y-66105451D01*
X170861134Y-66171766D01*
X170861132Y-66171772D01*
X170849501Y-66230241D01*
X170849500Y-66230253D01*
X170849500Y-67769746D01*
X170849501Y-67769758D01*
X170861132Y-67828227D01*
X170861133Y-67828231D01*
X170905448Y-67894552D01*
X170971769Y-67938867D01*
X171016231Y-67947711D01*
X171030241Y-67950498D01*
X171030246Y-67950498D01*
X171030252Y-67950500D01*
X171030253Y-67950500D01*
X171969747Y-67950500D01*
X171969748Y-67950500D01*
X172028231Y-67938867D01*
X172094552Y-67894552D01*
X172138867Y-67828231D01*
X172150500Y-67769748D01*
X172150500Y-66230253D01*
X172349500Y-66230253D01*
X172349500Y-67769746D01*
X172349501Y-67769758D01*
X172361132Y-67828227D01*
X172361133Y-67828231D01*
X172405448Y-67894552D01*
X172471769Y-67938867D01*
X172516231Y-67947711D01*
X172530241Y-67950498D01*
X172530246Y-67950498D01*
X172530252Y-67950500D01*
X172530253Y-67950500D01*
X173469747Y-67950500D01*
X173469748Y-67950500D01*
X173528231Y-67938867D01*
X173594552Y-67894552D01*
X173638867Y-67828231D01*
X173650500Y-67769748D01*
X173650500Y-66230252D01*
X173638867Y-66171769D01*
X173594552Y-66105448D01*
X173594548Y-66105445D01*
X173528233Y-66061134D01*
X173528231Y-66061133D01*
X173528228Y-66061132D01*
X173528227Y-66061132D01*
X173469758Y-66049501D01*
X173469748Y-66049500D01*
X172530252Y-66049500D01*
X172530251Y-66049500D01*
X172530241Y-66049501D01*
X172471772Y-66061132D01*
X172471766Y-66061134D01*
X172405451Y-66105445D01*
X172405445Y-66105451D01*
X172361134Y-66171766D01*
X172361132Y-66171772D01*
X172349501Y-66230241D01*
X172349500Y-66230253D01*
X172150500Y-66230253D01*
X172150500Y-66230252D01*
X172138867Y-66171769D01*
X172094552Y-66105448D01*
X172094548Y-66105445D01*
X172028233Y-66061134D01*
X172028231Y-66061133D01*
X172028228Y-66061132D01*
X172028227Y-66061132D01*
X171969758Y-66049501D01*
X171969748Y-66049500D01*
X171969747Y-66049500D01*
X171899046Y-66049500D01*
X171840855Y-66030593D01*
X171804891Y-65981093D01*
X171800893Y-65963424D01*
X171800500Y-65960440D01*
X171800500Y-65960438D01*
X171780022Y-65884012D01*
X171780020Y-65884009D01*
X171780020Y-65884007D01*
X171740463Y-65815493D01*
X171740461Y-65815491D01*
X171740460Y-65815489D01*
X171184511Y-65259540D01*
X171184508Y-65259538D01*
X171115992Y-65219980D01*
X171115988Y-65219978D01*
X171039564Y-65199500D01*
X171039562Y-65199500D01*
X163665479Y-65199500D01*
X163607288Y-65180593D01*
X163595475Y-65170504D01*
X159429496Y-61004525D01*
X159401719Y-60950008D01*
X159400500Y-60934521D01*
X159400500Y-60814479D01*
X159419407Y-60756288D01*
X159468907Y-60720324D01*
X159530093Y-60720324D01*
X159569504Y-60744475D01*
X159784540Y-60959511D01*
X159784539Y-60959511D01*
X159840489Y-61015460D01*
X159909007Y-61055019D01*
X159909011Y-61055021D01*
X159985435Y-61075499D01*
X159985437Y-61075500D01*
X159985438Y-61075500D01*
X161339564Y-61075500D01*
X161339564Y-61075499D01*
X161415990Y-61055021D01*
X161484512Y-61015460D01*
X161540461Y-60959511D01*
X161795476Y-60704496D01*
X161849993Y-60676719D01*
X161865480Y-60675500D01*
X162333491Y-60675500D01*
X162354886Y-60672111D01*
X162433127Y-60659719D01*
X162553221Y-60598528D01*
X162648529Y-60503220D01*
X162709720Y-60383126D01*
X162725501Y-60283488D01*
X162725501Y-59716512D01*
X162709720Y-59616874D01*
X162709717Y-59616869D01*
X162709717Y-59616867D01*
X162648530Y-59496782D01*
X162648529Y-59496780D01*
X162553221Y-59401472D01*
X162553218Y-59401470D01*
X162433133Y-59340283D01*
X162433128Y-59340281D01*
X162433127Y-59340281D01*
X162371347Y-59330496D01*
X162333491Y-59324500D01*
X162333489Y-59324500D01*
X161816513Y-59324500D01*
X161816511Y-59324500D01*
X161716875Y-59340281D01*
X161716868Y-59340283D01*
X161596783Y-59401470D01*
X161596779Y-59401473D01*
X161555470Y-59442782D01*
X161500953Y-59470559D01*
X161440521Y-59460987D01*
X161401207Y-59424751D01*
X161322574Y-59297269D01*
X161202730Y-59177425D01*
X161058488Y-59088454D01*
X160897604Y-59035143D01*
X160798324Y-59025000D01*
X160775002Y-59025000D01*
X160775001Y-59025001D01*
X160775001Y-60151000D01*
X160756094Y-60209191D01*
X160706594Y-60245155D01*
X160676001Y-60250000D01*
X160374001Y-60250000D01*
X160315810Y-60231093D01*
X160279846Y-60181593D01*
X160275001Y-60151000D01*
X160275001Y-59025000D01*
X160275000Y-59024999D01*
X160251690Y-59025000D01*
X160251685Y-59025001D01*
X160152402Y-59035142D01*
X160152391Y-59035145D01*
X159991514Y-59088454D01*
X159887676Y-59152502D01*
X159828223Y-59166958D01*
X159771628Y-59143708D01*
X159749968Y-59117741D01*
X159740460Y-59101273D01*
X159684511Y-59045323D01*
X159684511Y-59045324D01*
X159629497Y-58990310D01*
X159601720Y-58935793D01*
X159600501Y-58920306D01*
X159600501Y-58273999D01*
X159619408Y-58215808D01*
X159668908Y-58179844D01*
X159699501Y-58174999D01*
X160212500Y-58174999D01*
X160212501Y-58174998D01*
X160212501Y-57675001D01*
X160612501Y-57675001D01*
X160612501Y-58174998D01*
X160612502Y-58174999D01*
X161164321Y-58174999D01*
X161164325Y-58174998D01*
X161281630Y-58159556D01*
X161281632Y-58159555D01*
X161427586Y-58099100D01*
X161427590Y-58099098D01*
X161552920Y-58002929D01*
X161552930Y-58002919D01*
X161649099Y-57877589D01*
X161649101Y-57877585D01*
X161705985Y-57740253D01*
X169649500Y-57740253D01*
X169649500Y-60679746D01*
X169649501Y-60679758D01*
X169661132Y-60738227D01*
X169661134Y-60738233D01*
X169689500Y-60780685D01*
X169705448Y-60804552D01*
X169771769Y-60848867D01*
X169816231Y-60857711D01*
X169830241Y-60860498D01*
X169830246Y-60860498D01*
X169830252Y-60860500D01*
X169830253Y-60860500D01*
X172769747Y-60860500D01*
X172769748Y-60860500D01*
X172828231Y-60848867D01*
X172894552Y-60804552D01*
X172938867Y-60738231D01*
X172950500Y-60679748D01*
X172950500Y-57740252D01*
X172938867Y-57681769D01*
X172894552Y-57615448D01*
X172842290Y-57580527D01*
X172828233Y-57571134D01*
X172828231Y-57571133D01*
X172828228Y-57571132D01*
X172828227Y-57571132D01*
X172769758Y-57559501D01*
X172769748Y-57559500D01*
X169830252Y-57559500D01*
X169830251Y-57559500D01*
X169830241Y-57559501D01*
X169771772Y-57571132D01*
X169771766Y-57571134D01*
X169705451Y-57615445D01*
X169705445Y-57615451D01*
X169661134Y-57681766D01*
X169661132Y-57681772D01*
X169649501Y-57740241D01*
X169649500Y-57740253D01*
X161705985Y-57740253D01*
X161709556Y-57731632D01*
X161717012Y-57675000D01*
X160612502Y-57675000D01*
X160612501Y-57675001D01*
X160212501Y-57675001D01*
X160212501Y-57374000D01*
X160231408Y-57315809D01*
X160280908Y-57279845D01*
X160311501Y-57275000D01*
X161717012Y-57275000D01*
X161717012Y-57274999D01*
X161709557Y-57218372D01*
X161709555Y-57218364D01*
X161649101Y-57072414D01*
X161649099Y-57072410D01*
X161552930Y-56947080D01*
X161552924Y-56947074D01*
X161464232Y-56879018D01*
X161429577Y-56828593D01*
X161425500Y-56800476D01*
X161425500Y-56680139D01*
X161425500Y-56680136D01*
X161422586Y-56655009D01*
X161377207Y-56552235D01*
X161377206Y-56552234D01*
X161373501Y-56543843D01*
X161375876Y-56542794D01*
X161362463Y-56497261D01*
X161375527Y-56457051D01*
X161373501Y-56456157D01*
X161377205Y-56447766D01*
X161377207Y-56447765D01*
X161422586Y-56344991D01*
X161425501Y-56319865D01*
X161425500Y-56035572D01*
X161444407Y-55977383D01*
X161493907Y-55941419D01*
X161555092Y-55941418D01*
X161578021Y-55952288D01*
X161589948Y-55959953D01*
X161665528Y-55982145D01*
X161728036Y-56000499D01*
X161728037Y-56000499D01*
X161728040Y-56000500D01*
X161728042Y-56000500D01*
X161871960Y-56000500D01*
X161871962Y-56000500D01*
X162010054Y-55959953D01*
X162131129Y-55882143D01*
X162225378Y-55773373D01*
X162285166Y-55642457D01*
X162305648Y-55500000D01*
X162304281Y-55490495D01*
X162285166Y-55357543D01*
X162256042Y-55293771D01*
X162225378Y-55226627D01*
X162131129Y-55117857D01*
X162131128Y-55117856D01*
X162131127Y-55117855D01*
X162010058Y-55040049D01*
X162010055Y-55040047D01*
X162010054Y-55040047D01*
X162010051Y-55040046D01*
X161871965Y-54999500D01*
X161871962Y-54999500D01*
X161728040Y-54999500D01*
X161728036Y-54999500D01*
X161589950Y-55040046D01*
X161589943Y-55040049D01*
X161468873Y-55117856D01*
X161468870Y-55117859D01*
X161433132Y-55159102D01*
X161380736Y-55190698D01*
X161319775Y-55185461D01*
X161302367Y-55175946D01*
X161297767Y-55172795D01*
X161297766Y-55172794D01*
X161194992Y-55127415D01*
X161194991Y-55127414D01*
X161194989Y-55127414D01*
X161169869Y-55124500D01*
X159655140Y-55124500D01*
X159655137Y-55124501D01*
X159630010Y-55127414D01*
X159527236Y-55172794D01*
X159447795Y-55252235D01*
X159402415Y-55355011D01*
X159399501Y-55380130D01*
X159399501Y-55669859D01*
X159399502Y-55669864D01*
X159402415Y-55694990D01*
X159426438Y-55749397D01*
X159442351Y-55785436D01*
X159451501Y-55806157D01*
X159449127Y-55807205D01*
X159462538Y-55852757D01*
X159449478Y-55892949D01*
X159451501Y-55893843D01*
X159447795Y-55902234D01*
X159447795Y-55902235D01*
X159422311Y-55959951D01*
X159402415Y-56005011D01*
X159400461Y-56012195D01*
X159397191Y-56011305D01*
X159377630Y-56053830D01*
X159374881Y-56056691D01*
X159115490Y-56316083D01*
X159059540Y-56372033D01*
X159019981Y-56440551D01*
X159019979Y-56440555D01*
X158999501Y-56516979D01*
X158999501Y-58686992D01*
X158980594Y-58745183D01*
X158931094Y-58781147D01*
X158869908Y-58781147D01*
X158830498Y-58756996D01*
X158583041Y-58509540D01*
X158531912Y-58480020D01*
X158531910Y-58480020D01*
X158514519Y-58469979D01*
X158514516Y-58469978D01*
X158438094Y-58449500D01*
X158438092Y-58449500D01*
X155915479Y-58449500D01*
X155857288Y-58430593D01*
X155845475Y-58420504D01*
X155469474Y-58044503D01*
X155441697Y-57989986D01*
X155451268Y-57929554D01*
X155494533Y-57886289D01*
X155539474Y-57875499D01*
X156944865Y-57875499D01*
X156969992Y-57872585D01*
X157072766Y-57827206D01*
X157152207Y-57747765D01*
X157152210Y-57747756D01*
X157154968Y-57743732D01*
X157180146Y-57720427D01*
X157179365Y-57719409D01*
X157184507Y-57715463D01*
X157184508Y-57715461D01*
X157184511Y-57715460D01*
X157240460Y-57659511D01*
X157540461Y-57359510D01*
X157557420Y-57330136D01*
X157557424Y-57330130D01*
X157565692Y-57315809D01*
X157580022Y-57290988D01*
X157600501Y-57214561D01*
X157600501Y-55785439D01*
X157580022Y-55709012D01*
X157575777Y-55701660D01*
X157540461Y-55640490D01*
X157484513Y-55584541D01*
X157184510Y-55284539D01*
X157179360Y-55280587D01*
X157180138Y-55279573D01*
X157154972Y-55256272D01*
X157152208Y-55252237D01*
X157152207Y-55252236D01*
X157152207Y-55252235D01*
X157072766Y-55172794D01*
X156969992Y-55127415D01*
X156969991Y-55127414D01*
X156969989Y-55127414D01*
X156944869Y-55124500D01*
X155430140Y-55124500D01*
X155430137Y-55124501D01*
X155405010Y-55127414D01*
X155302234Y-55172795D01*
X155222792Y-55252236D01*
X155219907Y-55256449D01*
X155171423Y-55293771D01*
X155138233Y-55299500D01*
X153947083Y-55299500D01*
X153888892Y-55280593D01*
X153872264Y-55265331D01*
X153864568Y-55256449D01*
X153831128Y-55217857D01*
X153761010Y-55172795D01*
X153710057Y-55140049D01*
X153710054Y-55140047D01*
X153710053Y-55140047D01*
X153710050Y-55140046D01*
X153571964Y-55099500D01*
X153571961Y-55099500D01*
X153519500Y-55099500D01*
X153461309Y-55080593D01*
X153425345Y-55031093D01*
X153420500Y-55000500D01*
X153420500Y-54480253D01*
X153420498Y-54480241D01*
X153414265Y-54448907D01*
X153408867Y-54421769D01*
X153364552Y-54355448D01*
X153364548Y-54355445D01*
X153298233Y-54311134D01*
X153298231Y-54311133D01*
X153298228Y-54311132D01*
X153298227Y-54311132D01*
X153239758Y-54299501D01*
X153239748Y-54299500D01*
X153239747Y-54299500D01*
X153160164Y-54299500D01*
X153101973Y-54280593D01*
X153066009Y-54231093D01*
X153066009Y-54169907D01*
X153090160Y-54130496D01*
X153094114Y-54126542D01*
X153170775Y-54011811D01*
X153223580Y-53884328D01*
X153250500Y-53748993D01*
X153250500Y-53611007D01*
X153223580Y-53475672D01*
X153183632Y-53379228D01*
X153170777Y-53348193D01*
X153170771Y-53348182D01*
X153094114Y-53233458D01*
X152996541Y-53135885D01*
X152881817Y-53059228D01*
X152881806Y-53059222D01*
X152754328Y-53006420D01*
X152618995Y-52979500D01*
X152618993Y-52979500D01*
X151381007Y-52979500D01*
X151381004Y-52979500D01*
X151245672Y-53006420D01*
X151245670Y-53006420D01*
X151118193Y-53059222D01*
X151118182Y-53059228D01*
X151003458Y-53135885D01*
X150905885Y-53233458D01*
X150829228Y-53348182D01*
X150829222Y-53348193D01*
X150776420Y-53475670D01*
X150776420Y-53475672D01*
X150749500Y-53611004D01*
X150749500Y-53748995D01*
X150776420Y-53884327D01*
X150776420Y-53884329D01*
X150829222Y-54011806D01*
X150829228Y-54011817D01*
X150905885Y-54126541D01*
X151003458Y-54224114D01*
X151118182Y-54300771D01*
X151118193Y-54300777D01*
X151143198Y-54311134D01*
X151245672Y-54353580D01*
X151381007Y-54380500D01*
X151680500Y-54380500D01*
X151738691Y-54399407D01*
X151774655Y-54448907D01*
X151779500Y-54479500D01*
X151779500Y-54568958D01*
X151760593Y-54627149D01*
X151711093Y-54663113D01*
X151654877Y-54664584D01*
X151542601Y-54634500D01*
X151417399Y-54634500D01*
X151336775Y-54656103D01*
X151296463Y-54666905D01*
X151188036Y-54729505D01*
X151099505Y-54818036D01*
X151036905Y-54926463D01*
X151036905Y-54926464D01*
X151004500Y-55047399D01*
X151004500Y-55172601D01*
X151036905Y-55293536D01*
X151099505Y-55401964D01*
X151188036Y-55490495D01*
X151296464Y-55553095D01*
X151296469Y-55553096D01*
X151302459Y-55555578D01*
X151301550Y-55557770D01*
X151344181Y-55585439D01*
X151366122Y-55642555D01*
X151350301Y-55701660D01*
X151337263Y-55717765D01*
X150315489Y-56739540D01*
X150315488Y-56739539D01*
X150259539Y-56795489D01*
X150219980Y-56864007D01*
X150219978Y-56864011D01*
X150199500Y-56940435D01*
X142500500Y-56940435D01*
X142500500Y-53611004D01*
X146699500Y-53611004D01*
X146699500Y-53748995D01*
X146726420Y-53884327D01*
X146726420Y-53884329D01*
X146779222Y-54011806D01*
X146779228Y-54011817D01*
X146855885Y-54126541D01*
X146953458Y-54224114D01*
X147068182Y-54300771D01*
X147068193Y-54300777D01*
X147093198Y-54311134D01*
X147195672Y-54353580D01*
X147331007Y-54380500D01*
X147331008Y-54380500D01*
X148268992Y-54380500D01*
X148268993Y-54380500D01*
X148404328Y-54353580D01*
X148531811Y-54300775D01*
X148646542Y-54224114D01*
X148744114Y-54126542D01*
X148820775Y-54011811D01*
X148873580Y-53884328D01*
X148900500Y-53748993D01*
X148900500Y-53611007D01*
X148873580Y-53475672D01*
X148833632Y-53379228D01*
X148820777Y-53348193D01*
X148820771Y-53348182D01*
X148744114Y-53233458D01*
X148646541Y-53135885D01*
X148531817Y-53059228D01*
X148531806Y-53059222D01*
X148404328Y-53006420D01*
X148268995Y-52979500D01*
X148268993Y-52979500D01*
X147331007Y-52979500D01*
X147331004Y-52979500D01*
X147195672Y-53006420D01*
X147195670Y-53006420D01*
X147068193Y-53059222D01*
X147068182Y-53059228D01*
X146953458Y-53135885D01*
X146855885Y-53233458D01*
X146779228Y-53348182D01*
X146779222Y-53348193D01*
X146726420Y-53475670D01*
X146726420Y-53475672D01*
X146699500Y-53611004D01*
X142500500Y-53611004D01*
X142500500Y-48730253D01*
X164849500Y-48730253D01*
X164849500Y-50269746D01*
X164849501Y-50269758D01*
X164861132Y-50328227D01*
X164861134Y-50328233D01*
X164905445Y-50394548D01*
X164905448Y-50394552D01*
X164971769Y-50438867D01*
X165016231Y-50447711D01*
X165030241Y-50450498D01*
X165030246Y-50450498D01*
X165030252Y-50450500D01*
X165030253Y-50450500D01*
X165969747Y-50450500D01*
X165969748Y-50450500D01*
X166028231Y-50438867D01*
X166094552Y-50394552D01*
X166138867Y-50328231D01*
X166150500Y-50269748D01*
X166150500Y-48730252D01*
X166138867Y-48671769D01*
X166094552Y-48605448D01*
X166094548Y-48605445D01*
X166028233Y-48561134D01*
X166022027Y-48558564D01*
X165975500Y-48518828D01*
X165961216Y-48459333D01*
X165969857Y-48425973D01*
X165985165Y-48392457D01*
X166005647Y-48250000D01*
X165994935Y-48175499D01*
X165985165Y-48107543D01*
X165942143Y-48013340D01*
X165925377Y-47976627D01*
X165831128Y-47867857D01*
X165831127Y-47867856D01*
X165831126Y-47867855D01*
X165710057Y-47790049D01*
X165710054Y-47790047D01*
X165710053Y-47790047D01*
X165710050Y-47790046D01*
X165571964Y-47749500D01*
X165571961Y-47749500D01*
X165428039Y-47749500D01*
X165428035Y-47749500D01*
X165289949Y-47790046D01*
X165289942Y-47790049D01*
X165168873Y-47867855D01*
X165074622Y-47976628D01*
X165014834Y-48107543D01*
X164994353Y-48249997D01*
X164994353Y-48250000D01*
X165014834Y-48392455D01*
X165030141Y-48425972D01*
X165037116Y-48486758D01*
X165007030Y-48540035D01*
X164977974Y-48558563D01*
X164971768Y-48561133D01*
X164905451Y-48605445D01*
X164905445Y-48605451D01*
X164861134Y-48671766D01*
X164861132Y-48671772D01*
X164849501Y-48730241D01*
X164849500Y-48730253D01*
X142500500Y-48730253D01*
X142500500Y-44749997D01*
X161244353Y-44749997D01*
X161244353Y-44750002D01*
X161264834Y-44892456D01*
X161271391Y-44906813D01*
X161324623Y-45023373D01*
X161361107Y-45065478D01*
X161418873Y-45132144D01*
X161539942Y-45209950D01*
X161539947Y-45209953D01*
X161632089Y-45237008D01*
X161678035Y-45250499D01*
X161678036Y-45250499D01*
X161678039Y-45250500D01*
X161678041Y-45250500D01*
X161784521Y-45250500D01*
X161842712Y-45269407D01*
X161854525Y-45279496D01*
X161959540Y-45384511D01*
X161959539Y-45384511D01*
X162015489Y-45440460D01*
X162084007Y-45480019D01*
X162084011Y-45480021D01*
X162160435Y-45500499D01*
X162160437Y-45500500D01*
X162160438Y-45500500D01*
X162238992Y-45500500D01*
X162297183Y-45519407D01*
X162333147Y-45568907D01*
X162336773Y-45584013D01*
X162339352Y-45600300D01*
X162339354Y-45600304D01*
X162396950Y-45713342D01*
X162486658Y-45803050D01*
X162599696Y-45860646D01*
X162693481Y-45875500D01*
X163156518Y-45875499D01*
X163156520Y-45875499D01*
X163156521Y-45875498D01*
X163225502Y-45864574D01*
X163250299Y-45860647D01*
X163250299Y-45860646D01*
X163250304Y-45860646D01*
X163363342Y-45803050D01*
X163453050Y-45713342D01*
X163510646Y-45600304D01*
X163525500Y-45506519D01*
X163525499Y-45065477D01*
X163544406Y-45007287D01*
X163554496Y-44995474D01*
X163745475Y-44804496D01*
X163799991Y-44776719D01*
X163815478Y-44775500D01*
X163877272Y-44775500D01*
X163935463Y-44794407D01*
X163971427Y-44843907D01*
X163975053Y-44889988D01*
X163974500Y-44893479D01*
X163974500Y-45506520D01*
X163974501Y-45506523D01*
X163989352Y-45600299D01*
X163989354Y-45600304D01*
X164046950Y-45713342D01*
X164136658Y-45803050D01*
X164249696Y-45860646D01*
X164343481Y-45875500D01*
X164806518Y-45875499D01*
X164806520Y-45875499D01*
X164806521Y-45875498D01*
X164875502Y-45864574D01*
X164900299Y-45860647D01*
X164900299Y-45860646D01*
X164900304Y-45860646D01*
X165013342Y-45803050D01*
X165103050Y-45713342D01*
X165160646Y-45600304D01*
X165163226Y-45584013D01*
X165191003Y-45529497D01*
X165245519Y-45501719D01*
X165261007Y-45500500D01*
X165988992Y-45500500D01*
X166047183Y-45519407D01*
X166083147Y-45568907D01*
X166086773Y-45584013D01*
X166089352Y-45600300D01*
X166089354Y-45600304D01*
X166146950Y-45713342D01*
X166236658Y-45803050D01*
X166349696Y-45860646D01*
X166443481Y-45875500D01*
X166884520Y-45875499D01*
X166942711Y-45894406D01*
X166954524Y-45904495D01*
X167370504Y-46320475D01*
X167398281Y-46374992D01*
X167399500Y-46390479D01*
X167399500Y-48450500D01*
X167380593Y-48508691D01*
X167331093Y-48544655D01*
X167300500Y-48549500D01*
X166530252Y-48549500D01*
X166530251Y-48549500D01*
X166530241Y-48549501D01*
X166471772Y-48561132D01*
X166471766Y-48561134D01*
X166405451Y-48605445D01*
X166405445Y-48605451D01*
X166361134Y-48671766D01*
X166361132Y-48671772D01*
X166349501Y-48730241D01*
X166349500Y-48730253D01*
X166349500Y-50269746D01*
X166349501Y-50269758D01*
X166361132Y-50328227D01*
X166361134Y-50328233D01*
X166405445Y-50394548D01*
X166405448Y-50394552D01*
X166471769Y-50438867D01*
X166516231Y-50447711D01*
X166530241Y-50450498D01*
X166530246Y-50450498D01*
X166530252Y-50450500D01*
X167300500Y-50450500D01*
X167358691Y-50469407D01*
X167394655Y-50518907D01*
X167399500Y-50549500D01*
X167399500Y-51139564D01*
X167419978Y-51215988D01*
X167419980Y-51215992D01*
X167459538Y-51284508D01*
X167459540Y-51284511D01*
X180009540Y-63834511D01*
X180009539Y-63834511D01*
X180065489Y-63890460D01*
X180134007Y-63930019D01*
X180134011Y-63930021D01*
X180210435Y-63950499D01*
X180210437Y-63950500D01*
X180210438Y-63950500D01*
X180289562Y-63950500D01*
X185786567Y-63950500D01*
X185841568Y-63967184D01*
X185867505Y-63984515D01*
X185947867Y-64000500D01*
X186202132Y-64000499D01*
X186282495Y-63984515D01*
X186373624Y-63923624D01*
X186373628Y-63923618D01*
X186374275Y-63922972D01*
X186375643Y-63922274D01*
X186381731Y-63918207D01*
X186382212Y-63918927D01*
X186428790Y-63895191D01*
X186489222Y-63904758D01*
X186499281Y-63910653D01*
X186510038Y-63917840D01*
X186547920Y-63965889D01*
X186550324Y-64027027D01*
X186545094Y-64041284D01*
X186514833Y-64107545D01*
X186494353Y-64249997D01*
X186494353Y-64250002D01*
X186514834Y-64392456D01*
X186574622Y-64523371D01*
X186574623Y-64523373D01*
X186668872Y-64632143D01*
X186668873Y-64632144D01*
X186789942Y-64709950D01*
X186789947Y-64709953D01*
X186896403Y-64741211D01*
X186928035Y-64750499D01*
X186928036Y-64750499D01*
X186928039Y-64750500D01*
X186928041Y-64750500D01*
X187071959Y-64750500D01*
X187071961Y-64750500D01*
X187210053Y-64709953D01*
X187331128Y-64632143D01*
X187425377Y-64523373D01*
X187485165Y-64392457D01*
X187505575Y-64250500D01*
X187505647Y-64250002D01*
X187505647Y-64249997D01*
X187491508Y-64151659D01*
X187490500Y-64137570D01*
X187490500Y-64023851D01*
X187509407Y-63965660D01*
X187534481Y-63941547D01*
X187538828Y-63938642D01*
X187597709Y-63922026D01*
X187648840Y-63938634D01*
X187717505Y-63984515D01*
X187797867Y-64000500D01*
X188009590Y-64000499D01*
X188067780Y-64019406D01*
X188084409Y-64034668D01*
X188168870Y-64132141D01*
X188168872Y-64132143D01*
X188199239Y-64151659D01*
X188289947Y-64209953D01*
X188396403Y-64241211D01*
X188428035Y-64250499D01*
X188428036Y-64250499D01*
X188428039Y-64250500D01*
X188428041Y-64250500D01*
X188571959Y-64250500D01*
X188571961Y-64250500D01*
X188710053Y-64209953D01*
X188831128Y-64132143D01*
X188925377Y-64023373D01*
X188985165Y-63892457D01*
X189005647Y-63750000D01*
X188985165Y-63607543D01*
X188925377Y-63476627D01*
X188831128Y-63367857D01*
X188831127Y-63367856D01*
X188831126Y-63367855D01*
X188710057Y-63290049D01*
X188710054Y-63290047D01*
X188710053Y-63290047D01*
X188710050Y-63290046D01*
X188571964Y-63249500D01*
X188571961Y-63249500D01*
X188428039Y-63249500D01*
X188428037Y-63249500D01*
X188421030Y-63250508D01*
X188420653Y-63247886D01*
X188371230Y-63246474D01*
X188322778Y-63209111D01*
X188305500Y-63153232D01*
X188305500Y-62850000D01*
X188300348Y-62804272D01*
X188260666Y-62721873D01*
X188260665Y-62721872D01*
X188257027Y-62714317D01*
X188248814Y-62653685D01*
X188268822Y-62609636D01*
X188285149Y-62589163D01*
X188305500Y-62500000D01*
X188305500Y-62200000D01*
X188300348Y-62154272D01*
X188260666Y-62071873D01*
X188189163Y-62014851D01*
X188189162Y-62014850D01*
X188100000Y-61994500D01*
X187799500Y-61994500D01*
X187741309Y-61975593D01*
X187705345Y-61926093D01*
X187700500Y-61895500D01*
X187700500Y-61224500D01*
X187719407Y-61166309D01*
X187768907Y-61130345D01*
X187799500Y-61125500D01*
X188129273Y-61125500D01*
X188129273Y-61125499D01*
X188159699Y-61122646D01*
X188287882Y-61077793D01*
X188397150Y-60997150D01*
X188477793Y-60887882D01*
X188522646Y-60759699D01*
X188525499Y-60729273D01*
X188525500Y-60729273D01*
X188525500Y-59770727D01*
X188525499Y-59770725D01*
X188522646Y-59740305D01*
X188522646Y-59740301D01*
X188477793Y-59612118D01*
X188468628Y-59599700D01*
X188397154Y-59502855D01*
X188397152Y-59502853D01*
X188397150Y-59502850D01*
X188397146Y-59502847D01*
X188397144Y-59502845D01*
X188287883Y-59422207D01*
X188159703Y-59377355D01*
X188159694Y-59377353D01*
X188129274Y-59374500D01*
X188129266Y-59374500D01*
X185870734Y-59374500D01*
X185870725Y-59374500D01*
X185840305Y-59377353D01*
X185840296Y-59377355D01*
X185712116Y-59422207D01*
X185602855Y-59502845D01*
X185602845Y-59502855D01*
X185522207Y-59612116D01*
X185477355Y-59740296D01*
X185477353Y-59740305D01*
X185474500Y-59770725D01*
X185474500Y-60729274D01*
X185477353Y-60759694D01*
X185477355Y-60759703D01*
X185522207Y-60887883D01*
X185602845Y-60997144D01*
X185602847Y-60997146D01*
X185602850Y-60997150D01*
X185602853Y-60997152D01*
X185602855Y-60997154D01*
X185712116Y-61077792D01*
X185712117Y-61077792D01*
X185712118Y-61077793D01*
X185840301Y-61122646D01*
X185870725Y-61125499D01*
X185870727Y-61125500D01*
X185870734Y-61125500D01*
X186200500Y-61125500D01*
X186258691Y-61144407D01*
X186294655Y-61193907D01*
X186299500Y-61224500D01*
X186299500Y-61895500D01*
X186280593Y-61953691D01*
X186231093Y-61989655D01*
X186200500Y-61994500D01*
X185899998Y-61994500D01*
X185854272Y-61999651D01*
X185771872Y-62039334D01*
X185714850Y-62110837D01*
X185694500Y-62200000D01*
X185694500Y-62500001D01*
X185699651Y-62545727D01*
X185742972Y-62635682D01*
X185751185Y-62696314D01*
X185731179Y-62740360D01*
X185714851Y-62760835D01*
X185714850Y-62760836D01*
X185694500Y-62850000D01*
X185694500Y-63150001D01*
X185699652Y-63195728D01*
X185705343Y-63207546D01*
X185713556Y-63268178D01*
X185684562Y-63322057D01*
X185629436Y-63348604D01*
X185616147Y-63349500D01*
X180415479Y-63349500D01*
X180357288Y-63330593D01*
X180345475Y-63320504D01*
X172295696Y-55270725D01*
X185474500Y-55270725D01*
X185474500Y-56229274D01*
X185477353Y-56259694D01*
X185477355Y-56259703D01*
X185522207Y-56387883D01*
X185602845Y-56497144D01*
X185602847Y-56497146D01*
X185602850Y-56497150D01*
X185602853Y-56497152D01*
X185602855Y-56497154D01*
X185712116Y-56577792D01*
X185712117Y-56577792D01*
X185712118Y-56577793D01*
X185840301Y-56622646D01*
X185870725Y-56625499D01*
X185870727Y-56625500D01*
X185870734Y-56625500D01*
X188129273Y-56625500D01*
X188129273Y-56625499D01*
X188159699Y-56622646D01*
X188287882Y-56577793D01*
X188397150Y-56497150D01*
X188477793Y-56387882D01*
X188522646Y-56259699D01*
X188525499Y-56229273D01*
X188525500Y-56229273D01*
X188525500Y-55270727D01*
X188525499Y-55270725D01*
X188524160Y-55256449D01*
X188522646Y-55240301D01*
X188477793Y-55112118D01*
X188430028Y-55047399D01*
X188397154Y-55002855D01*
X188397152Y-55002853D01*
X188397150Y-55002850D01*
X188397146Y-55002847D01*
X188397144Y-55002845D01*
X188287883Y-54922207D01*
X188159703Y-54877355D01*
X188159694Y-54877353D01*
X188129274Y-54874500D01*
X188129266Y-54874500D01*
X187799500Y-54874500D01*
X187741309Y-54855593D01*
X187705345Y-54806093D01*
X187700500Y-54775500D01*
X187700500Y-53931008D01*
X187700499Y-53931004D01*
X187673580Y-53795672D01*
X187620775Y-53668189D01*
X187620774Y-53668187D01*
X187620771Y-53668182D01*
X187544114Y-53553458D01*
X187446541Y-53455885D01*
X187331817Y-53379228D01*
X187331806Y-53379222D01*
X187204328Y-53326420D01*
X187068995Y-53299500D01*
X187068993Y-53299500D01*
X186931007Y-53299500D01*
X186931004Y-53299500D01*
X186795672Y-53326420D01*
X186795670Y-53326420D01*
X186668193Y-53379222D01*
X186668182Y-53379228D01*
X186553458Y-53455885D01*
X186455885Y-53553458D01*
X186379228Y-53668182D01*
X186379222Y-53668193D01*
X186326420Y-53795670D01*
X186326420Y-53795672D01*
X186299500Y-53931004D01*
X186299500Y-54775500D01*
X186280593Y-54833691D01*
X186231093Y-54869655D01*
X186200500Y-54874500D01*
X185870725Y-54874500D01*
X185840305Y-54877353D01*
X185840296Y-54877355D01*
X185712116Y-54922207D01*
X185602855Y-55002845D01*
X185602845Y-55002855D01*
X185522207Y-55112116D01*
X185477355Y-55240296D01*
X185477353Y-55240305D01*
X185474500Y-55270725D01*
X172295696Y-55270725D01*
X168029496Y-51004525D01*
X168001719Y-50950008D01*
X168000500Y-50934521D01*
X168000500Y-50549500D01*
X168019407Y-50491309D01*
X168068907Y-50455345D01*
X168099500Y-50450500D01*
X168969747Y-50450500D01*
X168969748Y-50450500D01*
X169028231Y-50438867D01*
X169094552Y-50394552D01*
X169138867Y-50328231D01*
X169150500Y-50269748D01*
X169150500Y-48730252D01*
X169138867Y-48671769D01*
X169094552Y-48605448D01*
X169094548Y-48605445D01*
X169028233Y-48561134D01*
X169028231Y-48561133D01*
X169028228Y-48561132D01*
X169028227Y-48561132D01*
X168969758Y-48549501D01*
X168969748Y-48549500D01*
X168099500Y-48549500D01*
X168041309Y-48530593D01*
X168005345Y-48481093D01*
X168000500Y-48450500D01*
X168000500Y-46489478D01*
X168019407Y-46431287D01*
X168068907Y-46395323D01*
X168130093Y-46395323D01*
X168169501Y-46419472D01*
X169670505Y-47920476D01*
X169698281Y-47974991D01*
X169699500Y-47990478D01*
X169699500Y-48450500D01*
X169680593Y-48508691D01*
X169631093Y-48544655D01*
X169600500Y-48549500D01*
X169530252Y-48549500D01*
X169530251Y-48549500D01*
X169530241Y-48549501D01*
X169471772Y-48561132D01*
X169471766Y-48561134D01*
X169405451Y-48605445D01*
X169405445Y-48605451D01*
X169361134Y-48671766D01*
X169361132Y-48671772D01*
X169349501Y-48730241D01*
X169349500Y-48730253D01*
X169349500Y-50269746D01*
X169349501Y-50269758D01*
X169361132Y-50328227D01*
X169361134Y-50328233D01*
X169405445Y-50394548D01*
X169405448Y-50394552D01*
X169471769Y-50438867D01*
X169516231Y-50447711D01*
X169530241Y-50450498D01*
X169530246Y-50450498D01*
X169530252Y-50450500D01*
X169530253Y-50450500D01*
X170469747Y-50450500D01*
X170469748Y-50450500D01*
X170528231Y-50438867D01*
X170594552Y-50394552D01*
X170638867Y-50328231D01*
X170650500Y-50269748D01*
X170650500Y-48730253D01*
X170849500Y-48730253D01*
X170849500Y-50269746D01*
X170849501Y-50269758D01*
X170861132Y-50328227D01*
X170861134Y-50328233D01*
X170905445Y-50394548D01*
X170905448Y-50394552D01*
X170971769Y-50438867D01*
X171016231Y-50447711D01*
X171030241Y-50450498D01*
X171030246Y-50450498D01*
X171030252Y-50450500D01*
X171030253Y-50450500D01*
X171969747Y-50450500D01*
X171969748Y-50450500D01*
X172028231Y-50438867D01*
X172094552Y-50394552D01*
X172138867Y-50328231D01*
X172150500Y-50269748D01*
X172150500Y-48730253D01*
X172349500Y-48730253D01*
X172349500Y-50269746D01*
X172349501Y-50269758D01*
X172361132Y-50328227D01*
X172361134Y-50328233D01*
X172405445Y-50394548D01*
X172405448Y-50394552D01*
X172471769Y-50438867D01*
X172516231Y-50447711D01*
X172530241Y-50450498D01*
X172530246Y-50450498D01*
X172530252Y-50450500D01*
X172530253Y-50450500D01*
X173469747Y-50450500D01*
X173469748Y-50450500D01*
X173528231Y-50438867D01*
X173594552Y-50394552D01*
X173638867Y-50328231D01*
X173650500Y-50269748D01*
X173650500Y-48730253D01*
X173849500Y-48730253D01*
X173849500Y-50269746D01*
X173849501Y-50269758D01*
X173861132Y-50328227D01*
X173861134Y-50328233D01*
X173905445Y-50394548D01*
X173905448Y-50394552D01*
X173971769Y-50438867D01*
X174016231Y-50447711D01*
X174030241Y-50450498D01*
X174030246Y-50450498D01*
X174030252Y-50450500D01*
X174030253Y-50450500D01*
X174969747Y-50450500D01*
X174969748Y-50450500D01*
X175028231Y-50438867D01*
X175094552Y-50394552D01*
X175138867Y-50328231D01*
X175150500Y-50269748D01*
X175150500Y-48730252D01*
X175138867Y-48671769D01*
X175094552Y-48605448D01*
X175094548Y-48605445D01*
X175028233Y-48561134D01*
X175028231Y-48561133D01*
X175028228Y-48561132D01*
X175028227Y-48561132D01*
X174969758Y-48549501D01*
X174969748Y-48549500D01*
X174030252Y-48549500D01*
X174030251Y-48549500D01*
X174030241Y-48549501D01*
X173971772Y-48561132D01*
X173971766Y-48561134D01*
X173905451Y-48605445D01*
X173905445Y-48605451D01*
X173861134Y-48671766D01*
X173861132Y-48671772D01*
X173849501Y-48730241D01*
X173849500Y-48730253D01*
X173650500Y-48730253D01*
X173650500Y-48730252D01*
X173638867Y-48671769D01*
X173594552Y-48605448D01*
X173594548Y-48605445D01*
X173528233Y-48561134D01*
X173528231Y-48561133D01*
X173528228Y-48561132D01*
X173528227Y-48561132D01*
X173469758Y-48549501D01*
X173469748Y-48549500D01*
X172530252Y-48549500D01*
X172530251Y-48549500D01*
X172530241Y-48549501D01*
X172471772Y-48561132D01*
X172471766Y-48561134D01*
X172405451Y-48605445D01*
X172405445Y-48605451D01*
X172361134Y-48671766D01*
X172361132Y-48671772D01*
X172349501Y-48730241D01*
X172349500Y-48730253D01*
X172150500Y-48730253D01*
X172150500Y-48730252D01*
X172138867Y-48671769D01*
X172094552Y-48605448D01*
X172094548Y-48605445D01*
X172028233Y-48561134D01*
X172028231Y-48561133D01*
X172028228Y-48561132D01*
X172028227Y-48561132D01*
X171969758Y-48549501D01*
X171969748Y-48549500D01*
X171030252Y-48549500D01*
X171030251Y-48549500D01*
X171030241Y-48549501D01*
X170971772Y-48561132D01*
X170971766Y-48561134D01*
X170905451Y-48605445D01*
X170905445Y-48605451D01*
X170861134Y-48671766D01*
X170861132Y-48671772D01*
X170849501Y-48730241D01*
X170849500Y-48730253D01*
X170650500Y-48730253D01*
X170650500Y-48730252D01*
X170638867Y-48671769D01*
X170594552Y-48605448D01*
X170594548Y-48605445D01*
X170528233Y-48561134D01*
X170528231Y-48561133D01*
X170528228Y-48561132D01*
X170528227Y-48561132D01*
X170469758Y-48549501D01*
X170469748Y-48549500D01*
X170469747Y-48549500D01*
X170399500Y-48549500D01*
X170341309Y-48530593D01*
X170305345Y-48481093D01*
X170300500Y-48450500D01*
X170300500Y-47785439D01*
X170300500Y-47785438D01*
X170280022Y-47709012D01*
X170280020Y-47709009D01*
X170280020Y-47709007D01*
X170240463Y-47640493D01*
X170240462Y-47640492D01*
X170240461Y-47640491D01*
X170240460Y-47640489D01*
X169943448Y-47343477D01*
X170574500Y-47343477D01*
X170574500Y-47806520D01*
X170574501Y-47806523D01*
X170589352Y-47900299D01*
X170589354Y-47900304D01*
X170646950Y-48013342D01*
X170736658Y-48103050D01*
X170849696Y-48160646D01*
X170943481Y-48175500D01*
X171556518Y-48175499D01*
X171556520Y-48175499D01*
X171556521Y-48175498D01*
X171603411Y-48168072D01*
X171650299Y-48160647D01*
X171650299Y-48160646D01*
X171650304Y-48160646D01*
X171763342Y-48103050D01*
X171853050Y-48013342D01*
X171895742Y-47929553D01*
X171939006Y-47886290D01*
X171983951Y-47875500D01*
X172266049Y-47875500D01*
X172324240Y-47894407D01*
X172354257Y-47929552D01*
X172396950Y-48013342D01*
X172486658Y-48103050D01*
X172599696Y-48160646D01*
X172693481Y-48175500D01*
X173306518Y-48175499D01*
X173306520Y-48175499D01*
X173306521Y-48175498D01*
X173353411Y-48168072D01*
X173400299Y-48160647D01*
X173400299Y-48160646D01*
X173400304Y-48160646D01*
X173513342Y-48103050D01*
X173603050Y-48013342D01*
X173660646Y-47900304D01*
X173675500Y-47806519D01*
X173675499Y-47343482D01*
X173663309Y-47266510D01*
X175324500Y-47266510D01*
X175324500Y-47783489D01*
X175340281Y-47883125D01*
X175340283Y-47883132D01*
X175401470Y-48003217D01*
X175401472Y-48003220D01*
X175496780Y-48098528D01*
X175496782Y-48098529D01*
X175616867Y-48159716D01*
X175616870Y-48159716D01*
X175616874Y-48159719D01*
X175616878Y-48159719D01*
X175624281Y-48162125D01*
X175623812Y-48163566D01*
X175670501Y-48187353D01*
X175698281Y-48241868D01*
X175699500Y-48257359D01*
X175699500Y-48450500D01*
X175680593Y-48508691D01*
X175631093Y-48544655D01*
X175600500Y-48549500D01*
X175530252Y-48549500D01*
X175530251Y-48549500D01*
X175530241Y-48549501D01*
X175471772Y-48561132D01*
X175471766Y-48561134D01*
X175405451Y-48605445D01*
X175405445Y-48605451D01*
X175361134Y-48671766D01*
X175361132Y-48671772D01*
X175349501Y-48730241D01*
X175349500Y-48730253D01*
X175349500Y-50269746D01*
X175349501Y-50269758D01*
X175361132Y-50328227D01*
X175361134Y-50328233D01*
X175405445Y-50394548D01*
X175405448Y-50394552D01*
X175471769Y-50438867D01*
X175516231Y-50447711D01*
X175530241Y-50450498D01*
X175530246Y-50450498D01*
X175530252Y-50450500D01*
X175530253Y-50450500D01*
X176469747Y-50450500D01*
X176469748Y-50450500D01*
X176501404Y-50444203D01*
X176562165Y-50451393D01*
X176601108Y-50487389D01*
X176602403Y-50486421D01*
X176692807Y-50607184D01*
X176692815Y-50607192D01*
X176807909Y-50693352D01*
X176807911Y-50693353D01*
X176942618Y-50743596D01*
X176942629Y-50743598D01*
X177002176Y-50750000D01*
X177249999Y-50750000D01*
X177250000Y-50749999D01*
X177250000Y-49750001D01*
X177750000Y-49750001D01*
X177750000Y-50749999D01*
X177750001Y-50750000D01*
X177997824Y-50750000D01*
X178057370Y-50743598D01*
X178057381Y-50743596D01*
X178192088Y-50693353D01*
X178192090Y-50693352D01*
X178307184Y-50607192D01*
X178307192Y-50607184D01*
X178393352Y-50492090D01*
X178393353Y-50492088D01*
X178443596Y-50357381D01*
X178443598Y-50357370D01*
X178450000Y-50297824D01*
X178450000Y-49750001D01*
X178449999Y-49750000D01*
X177750001Y-49750000D01*
X177750000Y-49750001D01*
X177250000Y-49750001D01*
X177250000Y-48250001D01*
X177750000Y-48250001D01*
X177750000Y-49249999D01*
X177750001Y-49250000D01*
X178449999Y-49250000D01*
X178450000Y-49249999D01*
X178450000Y-48702175D01*
X178443598Y-48642629D01*
X178443596Y-48642618D01*
X178393353Y-48507911D01*
X178393352Y-48507909D01*
X178307192Y-48392815D01*
X178307184Y-48392807D01*
X178192090Y-48306647D01*
X178192088Y-48306646D01*
X178057381Y-48256403D01*
X178057370Y-48256401D01*
X177997824Y-48250000D01*
X177750001Y-48250000D01*
X177750000Y-48250001D01*
X177250000Y-48250001D01*
X177249999Y-48250000D01*
X177002176Y-48250000D01*
X176942629Y-48256401D01*
X176942618Y-48256403D01*
X176807911Y-48306646D01*
X176807909Y-48306647D01*
X176692815Y-48392807D01*
X176692807Y-48392815D01*
X176602404Y-48513579D01*
X176600920Y-48512468D01*
X176563119Y-48548161D01*
X176502437Y-48555996D01*
X176501408Y-48555797D01*
X176469753Y-48549500D01*
X176469748Y-48549500D01*
X176399500Y-48549500D01*
X176341309Y-48530593D01*
X176305345Y-48481093D01*
X176300500Y-48450500D01*
X176300500Y-48257359D01*
X176319407Y-48199168D01*
X176368907Y-48163204D01*
X176382274Y-48159995D01*
X176383119Y-48159719D01*
X176383126Y-48159719D01*
X176503220Y-48098528D01*
X176598528Y-48003220D01*
X176659719Y-47883126D01*
X176675500Y-47783488D01*
X176675500Y-47266512D01*
X176672836Y-47249695D01*
X176671703Y-47242541D01*
X176659719Y-47166874D01*
X176659716Y-47166869D01*
X176659716Y-47166867D01*
X176598529Y-47046782D01*
X176598528Y-47046780D01*
X176503220Y-46951472D01*
X176503217Y-46951470D01*
X176383132Y-46890283D01*
X176383127Y-46890281D01*
X176383126Y-46890281D01*
X176349913Y-46885020D01*
X176283490Y-46874500D01*
X176283488Y-46874500D01*
X175716512Y-46874500D01*
X175716510Y-46874500D01*
X175616874Y-46890281D01*
X175616867Y-46890283D01*
X175496782Y-46951470D01*
X175401470Y-47046782D01*
X175340283Y-47166867D01*
X175340281Y-47166874D01*
X175324500Y-47266510D01*
X173663309Y-47266510D01*
X173660647Y-47249700D01*
X173660646Y-47249698D01*
X173660646Y-47249696D01*
X173603050Y-47136658D01*
X173513342Y-47046950D01*
X173400304Y-46989354D01*
X173400305Y-46989354D01*
X173306522Y-46974500D01*
X172693479Y-46974500D01*
X172693476Y-46974501D01*
X172599700Y-46989352D01*
X172599695Y-46989354D01*
X172486659Y-47046949D01*
X172486658Y-47046950D01*
X172396950Y-47136658D01*
X172354257Y-47220446D01*
X172310994Y-47263710D01*
X172266049Y-47274500D01*
X171983951Y-47274500D01*
X171925760Y-47255593D01*
X171895742Y-47220447D01*
X171853050Y-47136658D01*
X171763342Y-47046950D01*
X171650304Y-46989354D01*
X171650305Y-46989354D01*
X171556522Y-46974500D01*
X170943479Y-46974500D01*
X170943476Y-46974501D01*
X170849700Y-46989352D01*
X170849695Y-46989354D01*
X170736659Y-47046949D01*
X170646949Y-47136659D01*
X170589354Y-47249695D01*
X170574500Y-47343477D01*
X169943448Y-47343477D01*
X168654496Y-46054525D01*
X168626719Y-46000008D01*
X168625500Y-45984521D01*
X168625500Y-45933951D01*
X168644407Y-45875760D01*
X168679552Y-45845742D01*
X168763342Y-45803050D01*
X168853050Y-45713342D01*
X168910646Y-45600304D01*
X168925500Y-45506519D01*
X168925499Y-44893482D01*
X168924945Y-44889983D01*
X168934519Y-44829552D01*
X168977785Y-44786289D01*
X169022727Y-44775500D01*
X170720407Y-44775500D01*
X170778598Y-44794407D01*
X170814562Y-44843907D01*
X170815396Y-44902395D01*
X170814098Y-44906813D01*
X170793618Y-45049262D01*
X170793618Y-45049267D01*
X170814099Y-45191721D01*
X170814099Y-45191723D01*
X170836112Y-45239923D01*
X170843087Y-45300709D01*
X170813001Y-45353986D01*
X170791005Y-45369258D01*
X170736659Y-45396949D01*
X170646949Y-45486659D01*
X170589354Y-45599695D01*
X170574500Y-45693477D01*
X170574500Y-46156520D01*
X170574501Y-46156523D01*
X170589352Y-46250299D01*
X170589354Y-46250304D01*
X170646950Y-46363342D01*
X170736658Y-46453050D01*
X170849696Y-46510646D01*
X170943481Y-46525500D01*
X171556518Y-46525499D01*
X171556520Y-46525499D01*
X171556521Y-46525498D01*
X171603411Y-46518072D01*
X171650299Y-46510647D01*
X171650299Y-46510646D01*
X171650304Y-46510646D01*
X171763342Y-46453050D01*
X171853050Y-46363342D01*
X171910646Y-46250304D01*
X171925500Y-46156519D01*
X171925499Y-45693482D01*
X171913367Y-45616874D01*
X171910647Y-45599700D01*
X171910646Y-45599698D01*
X171910646Y-45599696D01*
X171853050Y-45486658D01*
X171763342Y-45396950D01*
X171763339Y-45396948D01*
X171762081Y-45395690D01*
X171734304Y-45341173D01*
X171742021Y-45284583D01*
X171743158Y-45282093D01*
X171784516Y-45237008D01*
X171844480Y-45224841D01*
X171900143Y-45250244D01*
X171903224Y-45253195D01*
X172295504Y-45645475D01*
X172323281Y-45699992D01*
X172324500Y-45715479D01*
X172324500Y-46156520D01*
X172324501Y-46156523D01*
X172339352Y-46250299D01*
X172339354Y-46250304D01*
X172396950Y-46363342D01*
X172486658Y-46453050D01*
X172599696Y-46510646D01*
X172693481Y-46525500D01*
X173306518Y-46525499D01*
X173306520Y-46525499D01*
X173306521Y-46525498D01*
X173353411Y-46518072D01*
X173400299Y-46510647D01*
X173400299Y-46510646D01*
X173400304Y-46510646D01*
X173513342Y-46453050D01*
X173603050Y-46363342D01*
X173660646Y-46250304D01*
X173675500Y-46156519D01*
X173675499Y-45716510D01*
X175324500Y-45716510D01*
X175324500Y-46233489D01*
X175340281Y-46333125D01*
X175340283Y-46333132D01*
X175401385Y-46453050D01*
X175401472Y-46453220D01*
X175496780Y-46548528D01*
X175496782Y-46548529D01*
X175616867Y-46609716D01*
X175616869Y-46609716D01*
X175616874Y-46609719D01*
X175692541Y-46621703D01*
X175716510Y-46625500D01*
X175716512Y-46625500D01*
X176283490Y-46625500D01*
X176304885Y-46622111D01*
X176383126Y-46609719D01*
X176503220Y-46548528D01*
X176598528Y-46453220D01*
X176659719Y-46333126D01*
X176675500Y-46233488D01*
X176675500Y-45716512D01*
X176675336Y-45715479D01*
X176667963Y-45668925D01*
X176659719Y-45616874D01*
X176659716Y-45616869D01*
X176659716Y-45616867D01*
X176598529Y-45496782D01*
X176598528Y-45496780D01*
X176503220Y-45401472D01*
X176503217Y-45401470D01*
X176503216Y-45401469D01*
X176500627Y-45399588D01*
X176498745Y-45396998D01*
X176497710Y-45395963D01*
X176497874Y-45395798D01*
X176464663Y-45350088D01*
X176464662Y-45288903D01*
X176468764Y-45278369D01*
X176485165Y-45242457D01*
X176499665Y-45141606D01*
X176505647Y-45100002D01*
X176505647Y-45099997D01*
X176485165Y-44957543D01*
X176455909Y-44893482D01*
X176425377Y-44826627D01*
X176331128Y-44717857D01*
X176331127Y-44717856D01*
X176331126Y-44717855D01*
X176210057Y-44640049D01*
X176210054Y-44640047D01*
X176210053Y-44640047D01*
X176210050Y-44640046D01*
X176071964Y-44599500D01*
X176071961Y-44599500D01*
X175928039Y-44599500D01*
X175928035Y-44599500D01*
X175789949Y-44640046D01*
X175789942Y-44640049D01*
X175668873Y-44717855D01*
X175574622Y-44826628D01*
X175514834Y-44957543D01*
X175494353Y-45099997D01*
X175494353Y-45100002D01*
X175514833Y-45242452D01*
X175514834Y-45242454D01*
X175514834Y-45242455D01*
X175514835Y-45242457D01*
X175531234Y-45278366D01*
X175531236Y-45278369D01*
X175538210Y-45339155D01*
X175508123Y-45392432D01*
X175499377Y-45399585D01*
X175496783Y-45401469D01*
X175401470Y-45496782D01*
X175340283Y-45616867D01*
X175340281Y-45616874D01*
X175324500Y-45716510D01*
X173675499Y-45716510D01*
X173675499Y-45693482D01*
X173663367Y-45616874D01*
X173660647Y-45599700D01*
X173660646Y-45599698D01*
X173660646Y-45599696D01*
X173603050Y-45486658D01*
X173513342Y-45396950D01*
X173400304Y-45339354D01*
X173400305Y-45339354D01*
X173306522Y-45324500D01*
X173306519Y-45324500D01*
X172865479Y-45324500D01*
X172807288Y-45305593D01*
X172795475Y-45295504D01*
X172275471Y-44775500D01*
X171734511Y-44234540D01*
X171734508Y-44234538D01*
X171665992Y-44194980D01*
X171665988Y-44194978D01*
X171589564Y-44174500D01*
X171589562Y-44174500D01*
X163610438Y-44174500D01*
X163610435Y-44174500D01*
X163534011Y-44194978D01*
X163534007Y-44194980D01*
X163465489Y-44234539D01*
X163204524Y-44495504D01*
X163150008Y-44523281D01*
X163134521Y-44524500D01*
X162693479Y-44524500D01*
X162693476Y-44524501D01*
X162599700Y-44539352D01*
X162599695Y-44539354D01*
X162486658Y-44596950D01*
X162486656Y-44596951D01*
X162405296Y-44678311D01*
X162350779Y-44706088D01*
X162290347Y-44696516D01*
X162247083Y-44653252D01*
X162237300Y-44622395D01*
X162235165Y-44607543D01*
X162230327Y-44596950D01*
X162198427Y-44527099D01*
X162175377Y-44476627D01*
X162081128Y-44367857D01*
X162081127Y-44367856D01*
X162081126Y-44367855D01*
X161960057Y-44290049D01*
X161960054Y-44290047D01*
X161960053Y-44290047D01*
X161960050Y-44290046D01*
X161821964Y-44249500D01*
X161821961Y-44249500D01*
X161678039Y-44249500D01*
X161678035Y-44249500D01*
X161539949Y-44290046D01*
X161539942Y-44290049D01*
X161418873Y-44367855D01*
X161324622Y-44476628D01*
X161264834Y-44607543D01*
X161244353Y-44749997D01*
X142500500Y-44749997D01*
X142500500Y-43599500D01*
X142519407Y-43541309D01*
X142568907Y-43505345D01*
X142599500Y-43500500D01*
X191400500Y-43500500D01*
X191458691Y-43519407D01*
G37*
%TD.AperFunction*%
%TD*%
M02*
