M48
; DRILL file {KiCad 8.0.6} date 2024-12-09T16:08:54+1100
; FORMAT={-:-/ absolute / metric / decimal}
; #@! TF.CreationDate,2024-12-09T16:08:54+11:00
; #@! TF.GenerationSoftware,Kicad,Pcbnew,8.0.6
; #@! TF.FileFunction,Plated,1,2,PTH
FMAT,2
METRIC
; #@! TA.AperFunction,Plated,PTH,ComponentDrill
T1C0.200
; #@! TA.AperFunction,Plated,PTH,ViaDrill
T2C0.300
; #@! TA.AperFunction,Plated,PTH,ComponentDrill
T3C0.600
%
G90
G05
T1
X170.2Y-58.66
X170.2Y-59.76
X170.75Y-58.11
X170.75Y-59.21
X170.75Y-60.31
X171.3Y-58.66
X171.3Y-59.76
X171.85Y-58.11
X171.85Y-59.21
X171.85Y-60.31
X172.4Y-58.66
X172.4Y-59.76
T2
X153.5Y-55.6
X153.653Y-57.85
X158.5Y-60.0
X161.75Y-44.75
X161.8Y-55.5
X165.5Y-48.25
X170.0Y-71.75
X171.299Y-45.049
X176.0Y-45.1
X177.0Y-71.5
X180.253Y-69.753
X181.5Y-71.5
X187.0Y-54.0
X187.0Y-64.25
X188.5Y-63.75
T3
G00X148.2Y-53.68
M15
G01X147.4Y-53.68
M16
G05
G00X148.2Y-62.32
M15
G01X147.4Y-62.32
M16
G05
G00X152.55Y-53.68
M15
G01X151.45Y-53.68
M16
G05
G00X152.55Y-62.32
M15
G01X151.45Y-62.32
M16
G05
M30
